{"glyphs":{"0":{"ha":942,"x_min":51,"x_max":882,"o":"m 733 68 q 574 -15 661 7 q 401 -24 486 -37 q 242 38 317 -11 q 122 171 168 88 q 67 331 82 246 q 61 498 51 413 q 103 661 71 583 q 169 784 131 725 q 258 889 207 843 q 348 951 299 925 q 450 983 397 976 q 604 956 531 992 q 699 890 657 931 q 775 800 742 849 q 854 631 828 724 q 882 446 881 539 q 872 324 882 385 q 838 206 861 263 q 794 131 821 165 q 733 68 767 96 m 383 410 q 422 374 399 386 q 470 363 444 363 q 521 374 496 363 q 565 406 546 385 q 591 451 582 425 q 603 501 600 476 q 602 544 604 518 q 594 594 600 569 q 579 641 589 619 q 556 674 569 663 q 529 686 544 683 q 500 686 514 689 q 464 673 481 683 q 432 649 447 663 q 393 597 410 628 q 369 534 376 567 q 364 469 361 501 q 383 410 367 436 z "},"1":{"ha":622,"x_min":31,"x_max":557,"o":"m 494 28 q 433 1 467 8 q 365 -6 399 -7 q 310 5 338 -4 q 265 33 283 14 q 239 73 249 51 q 225 118 229 94 q 217 185 218 151 q 218 253 215 219 q 227 400 221 328 q 240 546 233 472 q 191 544 215 544 q 142 547 167 544 q 80 570 111 553 q 38 617 49 588 q 34 656 31 635 q 46 694 38 676 q 87 759 63 729 q 135 818 111 789 q 190 883 163 851 q 250 944 218 915 q 292 981 271 964 q 339 1010 314 999 q 415 1019 372 1025 q 482 986 457 1013 q 501 954 494 972 q 511 917 507 936 q 517 863 517 890 q 518 808 518 836 q 516 660 517 733 q 522 511 515 586 q 527 455 525 483 q 533 399 529 426 q 549 258 542 328 q 546 117 557 188 q 528 67 542 92 q 494 28 515 43 z "},"2":{"ha":806,"x_min":64,"x_max":751,"o":"m 519 -17 q 374 -25 446 -21 q 229 -18 301 -29 q 167 1 197 -11 q 114 35 138 13 q 72 103 85 61 q 65 158 65 131 q 71 214 65 186 q 126 336 86 283 q 183 398 151 369 q 250 452 215 426 q 320 503 285 478 q 389 554 356 528 q 455 614 424 582 q 507 685 486 646 q 532 765 528 722 q 518 818 535 793 q 454 861 496 851 q 379 851 413 871 q 360 835 368 844 q 344 815 351 826 q 335 790 338 804 q 331 763 332 776 q 332 710 329 736 q 333 660 335 685 q 328 626 332 643 q 314 596 324 610 q 276 560 300 574 q 225 542 251 546 q 170 541 197 538 q 119 560 143 544 q 96 578 107 567 q 78 604 85 590 q 67 644 69 624 q 67 686 64 665 q 81 756 69 722 q 107 822 93 789 q 175 919 129 876 q 275 983 221 961 q 386 1015 328 1006 q 501 1018 444 1025 q 583 999 543 1014 q 656 956 624 983 q 706 889 688 928 q 728 808 725 850 q 716 723 731 765 q 679 644 701 681 q 606 542 647 590 q 525 446 565 494 q 497 410 510 428 q 472 371 483 392 q 460 340 465 357 q 455 308 456 324 q 459 278 454 292 q 476 256 464 264 q 510 246 490 246 q 572 250 542 244 q 635 256 603 256 q 672 252 653 256 q 706 238 690 249 q 733 205 722 225 q 746 164 743 185 q 747 110 751 138 q 728 58 743 82 q 697 27 717 39 q 657 7 676 15 q 589 -10 624 -6 q 519 -17 554 -14 z "},"3":{"ha":819,"x_min":51,"x_max":760,"o":"m 508 -31 q 410 -33 460 -37 q 313 -18 361 -28 q 247 -4 279 -12 q 182 19 214 4 q 130 61 150 35 q 102 119 110 88 q 99 183 94 150 q 124 246 104 217 q 158 282 136 265 q 203 301 179 299 q 260 297 232 304 q 318 278 289 289 q 376 259 347 268 q 433 250 404 250 q 501 273 471 251 q 543 329 532 294 q 549 365 550 346 q 536 399 547 385 q 490 428 519 421 q 403 442 447 439 q 317 458 360 444 q 289 478 297 464 q 281 510 281 493 q 291 544 282 526 q 317 572 300 561 q 382 594 344 592 q 454 606 419 596 q 491 624 474 611 q 517 654 508 636 q 523 690 525 672 q 511 724 521 708 q 485 750 501 739 q 447 764 468 761 q 399 760 424 768 q 350 742 374 753 q 296 710 322 726 q 242 678 269 693 q 199 660 222 667 q 153 657 176 654 q 98 685 122 660 q 63 739 74 710 q 52 800 51 768 q 64 861 53 832 q 107 921 78 897 q 160 949 122 932 q 240 981 197 965 q 321 1010 282 997 q 378 1026 360 1022 q 469 1040 422 1038 q 560 1029 515 1043 q 645 983 608 1014 q 703 910 682 951 q 730 820 725 868 q 721 724 735 772 q 672 622 704 669 q 600 531 639 574 q 590 522 596 526 q 589 514 585 518 q 664 437 629 478 q 722 347 699 396 q 749 274 739 313 q 757 196 760 235 q 740 130 754 163 q 703 72 725 97 q 615 3 667 31 q 508 -31 564 -24 z "},"4":{"ha":888,"x_min":50,"x_max":856,"o":"m 575 -14 q 542 -14 558 -15 q 508 -7 525 -12 q 488 1 497 -4 q 472 17 479 7 q 456 60 458 33 q 457 119 453 89 q 463 179 461 149 l 358 175 q 281 170 319 172 q 204 172 243 168 q 153 183 179 175 q 108 208 128 192 q 74 254 86 226 q 57 310 61 282 q 57 396 50 353 q 75 482 64 439 q 92 539 79 496 q 120 631 106 582 q 148 724 135 681 q 165 782 161 768 q 176 831 169 797 q 190 902 182 865 q 207 971 197 939 q 228 1015 217 1003 q 244 1028 235 1024 q 265 1036 254 1033 q 315 1040 288 1040 q 368 1035 342 1040 q 417 1017 394 1029 q 450 985 439 1004 q 461 928 464 960 q 450 869 458 897 q 409 763 432 815 q 367 654 386 710 q 346 590 356 622 q 329 522 336 557 q 325 497 326 513 q 324 465 324 481 q 326 434 324 449 q 336 411 329 419 q 361 399 344 403 q 397 392 378 394 q 435 390 417 390 q 467 392 454 390 q 468 436 467 414 q 472 481 469 458 q 480 519 475 500 q 496 554 485 539 q 515 576 503 567 q 542 592 528 586 q 590 602 565 599 q 638 600 614 606 q 692 569 669 593 q 708 542 703 558 q 717 511 714 526 q 724 446 722 479 q 726 379 725 413 q 751 383 736 382 q 783 382 767 383 q 814 376 800 381 q 836 367 828 372 q 849 347 844 360 q 854 320 853 335 q 854 292 856 306 q 851 268 853 278 q 819 213 844 232 q 775 190 800 197 q 726 179 750 182 q 730 138 729 158 q 729 99 731 118 q 724 67 728 83 q 714 38 721 51 q 694 17 707 26 q 668 3 682 8 q 622 -9 646 -6 q 575 -14 599 -12 z "},"5":{"ha":854,"x_min":68,"x_max":796,"o":"m 551 10 q 410 -31 485 -21 q 263 -29 335 -42 q 167 4 214 -21 q 93 69 121 29 q 73 126 78 94 q 72 190 68 158 q 89 252 76 222 q 122 303 101 282 q 165 328 140 324 q 208 330 186 333 q 249 319 229 326 q 335 293 292 306 q 422 282 378 281 q 479 293 450 282 q 528 325 508 304 q 542 379 549 349 q 510 426 536 410 q 458 447 486 442 q 401 453 429 453 q 308 441 354 453 q 215 431 263 429 q 164 444 186 431 q 126 486 140 458 q 110 526 117 506 q 100 565 104 546 q 79 722 83 642 q 78 794 78 758 q 90 865 79 831 q 119 924 100 897 q 165 971 138 951 q 211 994 186 986 q 263 1004 236 1001 q 341 1007 301 1010 q 419 999 381 1004 q 453 1000 429 997 q 505 1006 478 1003 q 556 1013 532 1010 q 590 1017 581 1017 q 652 1013 621 1019 q 708 990 683 1007 q 753 934 738 969 q 768 863 769 899 q 751 794 767 828 q 708 739 736 760 q 656 712 685 721 q 597 700 626 703 q 505 706 551 697 q 414 725 458 714 q 378 733 397 729 q 340 735 358 736 q 306 727 321 733 q 286 704 292 721 q 283 686 283 696 q 285 668 283 676 q 295 638 288 657 q 311 613 303 619 q 324 609 315 610 q 343 608 333 608 q 362 610 353 608 q 376 611 371 611 q 458 625 417 618 q 542 631 500 632 q 630 615 586 629 q 708 572 674 600 q 738 543 725 560 q 761 507 750 526 q 788 420 781 467 q 789 329 796 374 q 742 188 781 254 q 661 84 710 129 q 551 10 613 39 z "},"6":{"ha":888,"x_min":54,"x_max":846,"o":"m 624 -24 q 490 -41 560 -43 q 357 -19 421 -39 q 234 37 293 0 q 133 126 175 74 q 69 276 82 192 q 69 506 54 389 q 131 728 83 624 q 199 844 158 790 q 292 939 239 899 q 385 991 335 971 q 488 1019 435 1011 q 545 1023 515 1024 q 599 1010 575 1022 q 641 975 621 997 q 674 926 661 953 q 692 870 688 899 q 692 817 697 842 q 651 754 683 778 q 599 728 628 738 q 542 708 569 718 q 472 683 506 697 q 408 644 438 668 q 376 612 390 631 q 357 571 361 593 q 357 529 353 551 q 374 492 361 507 q 392 479 381 483 q 415 472 404 475 q 463 472 439 469 q 511 479 488 475 q 590 493 550 486 q 669 499 629 500 q 724 492 697 499 q 774 468 751 485 q 819 406 804 444 q 839 328 835 367 q 823 185 846 257 q 754 61 800 114 q 694 10 728 32 q 624 -24 660 -11 m 443 160 q 507 146 475 142 q 563 169 539 150 q 599 217 586 188 q 606 283 611 247 q 594 319 603 301 q 569 346 585 338 q 533 353 554 353 q 492 347 513 353 q 451 332 471 342 q 419 311 432 322 q 388 261 396 290 q 393 213 383 233 q 414 181 400 194 q 443 160 428 168 z "},"7":{"ha":683,"x_min":46,"x_max":644,"o":"m 392 -10 q 346 -23 371 -21 q 297 -22 321 -25 q 242 -15 269 -21 q 192 3 215 -10 q 139 50 156 18 q 127 85 131 67 q 124 122 124 103 q 127 183 122 153 q 139 243 132 213 q 203 455 164 351 q 289 660 243 558 q 319 723 304 692 q 347 786 333 754 q 281 774 314 779 q 214 761 247 768 q 172 756 193 758 q 128 756 150 754 q 103 762 115 757 q 82 776 90 767 q 65 799 71 786 q 56 825 60 811 q 50 897 46 860 q 67 951 54 925 q 104 994 81 978 q 150 1016 125 1010 q 200 1025 175 1022 q 339 1039 271 1033 q 478 1044 407 1044 q 523 1043 500 1044 q 565 1033 546 1042 q 610 1005 589 1024 q 638 961 631 986 q 642 916 644 939 q 633 869 639 893 q 594 751 618 808 q 551 635 571 694 q 469 213 486 429 q 463 128 467 171 q 442 46 458 85 q 392 -10 426 7 z "},"8":{"ha":885,"x_min":57,"x_max":825,"o":"m 583 -31 q 440 -42 513 -43 q 294 -29 367 -40 q 249 -19 271 -25 q 206 -6 226 -14 q 145 29 174 8 q 97 78 117 50 q 60 183 64 126 q 60 235 57 208 q 69 286 63 261 q 115 386 85 339 q 183 472 144 433 q 196 483 186 475 q 216 500 206 492 q 236 517 226 508 q 249 528 246 525 q 196 572 221 547 q 153 626 171 597 q 117 716 128 667 q 115 813 107 765 q 146 899 122 857 q 203 969 169 940 q 294 1024 243 1004 q 399 1046 346 1043 q 524 1044 461 1051 q 646 1014 588 1038 q 707 978 678 1000 q 757 929 736 957 q 788 868 776 901 q 801 800 800 835 q 781 676 806 735 q 719 584 758 625 q 635 508 679 543 q 721 422 678 465 q 792 324 764 378 q 819 230 814 281 q 810 133 825 179 q 769 64 797 96 q 708 11 742 32 q 648 -16 681 -7 q 583 -31 615 -25 m 385 649 q 433 635 407 638 q 486 640 460 633 q 536 660 513 646 q 575 693 560 674 q 591 722 586 706 q 593 753 596 738 q 568 794 589 776 q 524 822 547 813 q 461 835 494 833 q 397 826 428 836 q 370 815 383 822 q 347 799 357 808 q 326 760 331 782 q 328 718 322 739 q 349 678 335 697 q 385 649 364 660 m 411 192 q 471 188 440 186 q 526 201 501 190 q 562 231 550 211 q 565 279 574 250 q 535 328 557 307 q 489 363 514 350 q 456 374 474 369 q 424 376 439 379 q 376 353 396 372 q 350 324 361 340 q 334 290 339 308 q 333 255 329 272 q 349 224 336 238 q 377 202 360 210 q 411 192 394 194 z "},"9":{"ha":888,"x_min":43,"x_max":835,"o":"m 400 -37 q 344 -41 372 -42 q 293 -29 317 -40 q 248 6 268 -17 q 214 56 228 29 q 196 113 200 83 q 199 171 192 143 q 240 229 207 207 q 292 255 264 246 q 349 274 321 264 q 417 300 383 285 q 481 338 451 315 q 513 370 499 351 q 532 411 528 389 q 532 453 536 431 q 515 490 528 475 q 474 510 500 507 q 426 510 450 513 q 378 503 401 507 q 299 490 339 496 q 219 483 260 483 q 165 491 192 485 q 115 514 138 497 q 69 576 83 538 q 50 654 54 615 q 66 797 43 725 q 135 922 89 869 q 231 991 174 967 q 346 1022 288 1015 q 519 1006 432 1031 q 676 931 607 982 q 785 811 746 881 q 807 761 799 788 q 819 707 815 735 q 820 476 835 593 q 758 254 806 358 q 690 139 731 193 q 596 44 649 85 q 503 -8 553 13 q 400 -37 453 -29 m 319 636 q 355 629 335 629 q 396 635 375 629 q 436 650 417 640 q 468 671 456 660 q 488 692 479 681 q 500 718 496 704 q 485 790 510 757 q 422 833 461 822 q 364 835 392 843 q 316 806 336 826 q 287 757 296 786 q 283 696 278 728 q 295 662 286 679 q 319 636 304 644 z "},"\u0000":{"ha":0,"x_min":0,"x_max":0,"o":""},"\r":{"ha":347,"x_min":0,"x_max":0,"o":""}," ":{"ha":347,"x_min":0,"x_max":0,"o":""},"!":{"ha":465,"x_min":71,"x_max":406,"o":"m 264 361 q 178 365 221 354 q 148 376 163 369 q 122 394 133 383 q 102 424 110 407 q 92 458 94 440 q 79 565 79 511 q 81 674 79 619 q 79 718 81 685 q 77 789 78 751 q 76 859 76 826 q 75 903 75 892 q 78 934 76 918 q 86 964 79 950 q 110 990 94 979 q 143 1008 126 1001 q 233 1026 190 1026 q 289 1022 261 1025 q 338 1003 317 1018 q 377 953 363 983 q 396 892 392 924 q 396 735 406 813 q 375 581 386 658 q 363 506 368 543 q 346 432 357 468 q 333 405 340 418 q 315 382 326 392 q 291 369 304 374 q 264 361 278 364 m 281 7 q 218 -4 250 -4 q 158 6 186 -4 q 109 38 131 17 q 78 89 88 58 q 73 142 71 114 q 89 193 75 171 q 120 225 100 213 q 161 243 140 238 q 216 254 188 250 q 271 247 244 258 q 332 207 307 235 q 360 152 354 182 q 359 94 367 122 q 331 42 351 65 q 281 7 311 18 z "},"\"":{"ha":511,"x_min":46,"x_max":469,"o":"m 129 697 q 85 694 108 690 q 53 718 61 697 q 49 748 49 726 q 49 794 49 769 q 51 840 50 818 q 50 872 51 863 q 49 894 50 879 q 47 925 47 908 q 46 957 46 942 q 49 979 46 972 q 59 996 51 989 q 75 1006 67 1003 q 104 1013 88 1010 q 139 1015 121 1015 q 172 1009 157 1014 q 197 996 188 1004 q 217 960 211 983 q 223 912 222 938 q 220 860 224 886 q 213 817 217 835 q 201 776 207 796 q 182 738 194 756 q 159 713 172 724 q 129 697 146 703 m 375 689 q 331 685 354 682 q 297 710 307 689 q 294 740 294 718 q 294 787 293 763 q 295 833 294 811 q 296 865 296 856 q 294 887 296 872 q 292 918 293 901 q 290 949 290 935 q 293 971 290 964 q 321 999 299 989 q 350 1006 333 1003 q 385 1007 367 1008 q 418 1001 403 1006 q 443 989 433 997 q 463 953 457 976 q 469 904 468 931 q 466 852 469 878 q 458 808 463 826 q 446 768 453 789 q 428 731 439 747 q 375 689 410 703 z "},"«":{"ha":511,"x_min":46,"x_max":469,"o":"m 129 697 q 85 694 108 690 q 53 718 61 697 q 49 748 49 726 q 49 794 49 769 q 51 840 50 818 q 50 872 51 863 q 49 894 50 879 q 47 925 47 908 q 46 957 46 942 q 49 979 46 972 q 59 996 51 989 q 75 1006 67 1003 q 104 1013 88 1010 q 139 1015 121 1015 q 172 1009 157 1014 q 197 996 188 1004 q 217 960 211 983 q 223 912 222 938 q 220 860 224 886 q 213 817 217 835 q 201 776 207 796 q 182 738 194 756 q 159 713 172 724 q 129 697 146 703 m 375 689 q 331 685 354 682 q 297 710 307 689 q 294 740 294 718 q 294 787 293 763 q 295 833 294 811 q 296 865 296 856 q 294 887 296 872 q 292 918 293 901 q 290 949 290 935 q 293 971 290 964 q 321 999 299 989 q 350 1006 333 1003 q 385 1007 367 1008 q 418 1001 403 1006 q 443 989 433 997 q 463 953 457 976 q 469 904 468 931 q 466 852 469 878 q 458 808 463 826 q 446 768 453 789 q 428 731 439 747 q 375 689 410 703 z "},"»":{"ha":511,"x_min":46,"x_max":469,"o":"m 129 697 q 85 694 108 690 q 53 718 61 697 q 49 748 49 726 q 49 794 49 769 q 51 840 50 818 q 50 872 51 863 q 49 894 50 879 q 47 925 47 908 q 46 957 46 942 q 49 979 46 972 q 59 996 51 989 q 75 1006 67 1003 q 104 1013 88 1010 q 139 1015 121 1015 q 172 1009 157 1014 q 197 996 188 1004 q 217 960 211 983 q 223 912 222 938 q 220 860 224 886 q 213 817 217 835 q 201 776 207 796 q 182 738 194 756 q 159 713 172 724 q 129 697 146 703 m 375 689 q 331 685 354 682 q 297 710 307 689 q 294 740 294 718 q 294 787 293 763 q 295 833 294 811 q 296 865 296 856 q 294 887 296 872 q 292 918 293 901 q 290 949 290 935 q 293 971 290 964 q 321 999 299 989 q 350 1006 333 1003 q 385 1007 367 1008 q 418 1001 403 1006 q 443 989 433 997 q 463 953 457 976 q 469 904 468 931 q 466 852 469 878 q 458 808 463 826 q 446 768 453 789 q 428 731 439 747 q 375 689 410 703 z "},"„":{"ha":511,"x_min":46,"x_max":469,"o":"m 129 697 q 85 694 108 690 q 53 718 61 697 q 49 748 49 726 q 49 794 49 769 q 51 840 50 818 q 50 872 51 863 q 49 894 50 879 q 47 925 47 908 q 46 957 46 942 q 49 979 46 972 q 59 996 51 989 q 75 1006 67 1003 q 104 1013 88 1010 q 139 1015 121 1015 q 172 1009 157 1014 q 197 996 188 1004 q 217 960 211 983 q 223 912 222 938 q 220 860 224 886 q 213 817 217 835 q 201 776 207 796 q 182 738 194 756 q 159 713 172 724 q 129 697 146 703 m 375 689 q 331 685 354 682 q 297 710 307 689 q 294 740 294 718 q 294 787 293 763 q 295 833 294 811 q 296 865 296 856 q 294 887 296 872 q 292 918 293 901 q 290 949 290 935 q 293 971 290 964 q 321 999 299 989 q 350 1006 333 1003 q 385 1007 367 1008 q 418 1001 403 1006 q 443 989 433 997 q 463 953 457 976 q 469 904 468 931 q 466 852 469 878 q 458 808 463 826 q 446 768 453 789 q 428 731 439 747 q 375 689 410 703 z "},"‟":{"ha":511,"x_min":46,"x_max":469,"o":"m 129 697 q 85 694 108 690 q 53 718 61 697 q 49 748 49 726 q 49 794 49 769 q 51 840 50 818 q 50 872 51 863 q 49 894 50 879 q 47 925 47 908 q 46 957 46 942 q 49 979 46 972 q 59 996 51 989 q 75 1006 67 1003 q 104 1013 88 1010 q 139 1015 121 1015 q 172 1009 157 1014 q 197 996 188 1004 q 217 960 211 983 q 223 912 222 938 q 220 860 224 886 q 213 817 217 835 q 201 776 207 796 q 182 738 194 756 q 159 713 172 724 q 129 697 146 703 m 375 689 q 331 685 354 682 q 297 710 307 689 q 294 740 294 718 q 294 787 293 763 q 295 833 294 811 q 296 865 296 856 q 294 887 296 872 q 292 918 293 901 q 290 949 290 935 q 293 971 290 964 q 321 999 299 989 q 350 1006 333 1003 q 385 1007 367 1008 q 418 1001 403 1006 q 443 989 433 997 q 463 953 457 976 q 469 904 468 931 q 466 852 469 878 q 458 808 463 826 q 446 768 453 789 q 428 731 439 747 q 375 689 410 703 z "},"#":{"ha":1071,"x_min":40,"x_max":1028,"o":"m 664 18 q 597 23 629 3 q 553 79 565 43 q 548 103 549 90 q 546 126 547 115 q 548 174 546 150 q 553 221 550 197 q 467 222 510 221 q 382 222 425 222 q 356 136 371 179 q 313 57 340 93 q 288 31 301 43 q 257 17 274 19 q 217 19 235 11 q 185 42 199 26 q 163 78 171 57 q 154 122 156 100 q 156 178 153 150 q 161 233 158 206 q 120 240 140 236 q 81 254 100 244 q 62 267 71 260 q 49 286 53 275 q 47 319 40 301 q 76 360 53 342 q 129 385 100 378 q 188 399 158 393 q 197 453 192 426 q 208 508 203 481 q 167 515 188 511 q 126 528 146 519 q 102 542 114 533 q 85 565 90 551 q 92 610 78 589 q 122 641 103 629 q 161 660 140 653 q 203 671 182 667 q 247 678 225 675 q 272 743 256 704 q 309 819 288 782 q 356 887 331 857 q 408 925 381 917 q 458 921 435 933 q 497 881 485 908 q 511 821 508 854 q 509 752 514 788 q 497 688 504 717 q 570 687 533 688 q 643 685 607 686 q 703 822 664 760 q 761 899 726 868 q 790 917 774 910 q 821 925 806 925 q 854 917 838 925 q 881 894 871 908 q 896 863 892 879 q 901 828 900 846 q 900 747 906 788 q 886 667 894 707 q 958 647 921 661 q 972 642 963 646 q 990 632 981 638 q 1007 622 999 626 q 1018 613 1015 617 q 1027 586 1028 600 q 1018 560 1026 572 q 996 538 1010 547 q 967 522 982 528 q 907 507 938 511 q 846 500 876 503 q 832 447 839 474 q 818 394 825 421 q 872 385 846 390 q 922 371 897 381 q 935 364 926 368 q 952 354 943 360 q 969 344 961 349 q 979 335 976 339 q 988 309 989 322 q 979 283 988 296 q 957 261 971 271 q 928 246 943 251 q 853 228 892 232 q 775 222 814 225 q 738 113 760 163 q 708 58 725 85 q 664 18 692 31 m 431 410 q 506 410 468 411 q 582 408 543 410 q 590 453 586 432 q 599 497 594 475 q 526 498 563 497 q 451 499 489 499 q 441 455 446 476 q 431 410 436 433 z "},"$":{"ha":844,"x_min":60,"x_max":783,"o":"m 514 -122 q 470 -149 499 -142 q 418 -153 442 -157 q 376 -133 396 -147 q 347 -100 356 -119 q 343 -62 340 -82 q 349 -24 346 -43 q 255 -8 301 -19 q 168 28 208 4 q 97 100 122 51 q 83 150 86 124 q 82 203 79 176 q 90 244 83 221 q 108 290 97 268 q 132 328 118 311 q 164 350 146 344 q 204 351 182 356 q 285 332 244 346 q 365 308 325 318 q 407 302 382 304 q 457 301 432 300 q 504 308 482 303 q 538 326 526 314 q 551 354 549 338 q 551 386 554 371 q 522 442 544 417 q 471 478 499 467 q 415 491 443 488 q 358 496 388 494 q 301 498 329 497 q 243 501 272 499 q 190 513 217 504 q 144 540 164 522 q 120 564 132 551 q 100 592 108 576 q 78 635 88 611 q 67 682 69 658 q 69 782 60 731 q 104 876 79 833 q 204 978 142 942 q 274 1007 236 997 q 347 1021 311 1017 q 340 1051 343 1036 q 340 1081 338 1065 q 355 1117 343 1100 q 383 1143 367 1135 q 441 1152 408 1156 q 493 1129 474 1149 q 514 1084 511 1111 q 517 1032 517 1057 q 570 1033 544 1033 q 622 1029 596 1032 q 669 1022 646 1026 q 711 1003 692 1017 q 743 965 731 989 q 762 913 756 942 q 767 857 768 885 q 760 807 767 829 q 741 767 753 786 q 711 736 729 747 q 668 722 692 725 q 622 718 644 718 q 550 724 586 721 q 478 726 514 728 q 449 724 465 726 q 419 718 433 722 q 393 707 404 714 q 378 689 382 700 q 375 658 374 674 q 386 631 376 642 q 410 616 396 619 q 438 611 424 613 q 503 604 469 607 q 568 594 536 601 q 630 574 600 588 q 683 536 660 560 q 748 441 724 496 q 779 329 772 386 q 775 240 783 285 q 751 154 767 196 q 714 84 739 117 q 656 31 689 51 q 588 3 624 11 q 517 -12 553 -6 q 524 -41 521 -28 q 528 -69 526 -54 q 526 -97 529 -83 q 514 -122 524 -111 z "},"%":{"ha":1272,"x_min":35,"x_max":1236,"o":"m 493 -49 q 441 -50 465 -57 q 397 -26 417 -43 q 365 15 378 -10 q 347 67 351 39 q 344 106 343 86 q 347 144 344 125 q 362 225 353 185 q 382 304 371 265 q 416 415 397 361 q 454 524 435 469 q 487 611 469 568 q 525 696 504 654 q 574 782 547 740 q 631 864 600 824 q 685 926 657 896 q 750 979 714 956 q 792 1000 769 992 q 838 1008 814 1008 q 897 987 869 1007 q 935 936 924 967 q 945 877 946 908 q 940 815 944 846 q 926 749 935 782 q 906 685 918 717 q 885 633 900 669 q 850 549 869 596 q 808 449 831 501 q 765 349 785 396 q 728 265 744 301 q 706 214 713 229 q 668 140 688 176 q 625 71 649 104 q 593 26 610 47 q 556 -14 576 4 q 526 -35 542 -25 q 493 -49 511 -44 m 374 592 q 284 536 335 550 q 185 532 233 522 q 100 576 138 542 q 50 664 63 610 q 47 785 35 725 q 60 824 51 806 q 79 863 69 843 q 113 905 92 886 q 158 935 135 924 q 206 947 182 944 q 253 949 229 950 q 308 941 281 947 q 356 917 335 935 q 415 844 394 886 q 433 780 429 814 q 432 712 438 746 q 412 647 426 678 q 374 592 397 617 m 1172 106 q 1083 49 1133 64 q 984 45 1032 35 q 899 89 936 56 q 849 178 861 122 q 846 297 833 239 q 859 338 850 318 q 878 376 868 357 q 957 449 904 426 q 1003 461 979 458 q 1051 463 1028 464 q 1106 455 1079 461 q 1154 431 1133 449 q 1188 397 1172 415 q 1214 357 1203 379 q 1232 292 1228 326 q 1231 225 1236 258 q 1210 161 1225 192 q 1172 106 1196 131 z "},"&":{"ha":1042,"x_min":54,"x_max":999,"o":"m 963 29 q 926 -1 947 13 q 883 -24 906 -15 q 835 -35 860 -32 q 789 -33 811 -37 q 709 -1 746 -25 q 638 50 672 24 q 542 3 593 22 q 438 -22 490 -15 q 342 -25 390 -29 q 250 -4 294 -21 q 184 29 215 8 q 128 78 153 50 q 82 147 100 108 q 58 228 64 186 q 60 294 54 260 q 78 358 65 328 q 142 458 101 413 q 231 539 182 503 q 172 601 199 567 q 131 675 144 635 q 120 765 115 717 q 144 853 125 813 q 222 959 172 914 q 335 1025 272 1004 q 449 1042 389 1043 q 565 1024 510 1040 q 636 994 601 1013 q 699 949 671 976 q 737 903 719 929 q 763 850 754 878 q 763 744 778 797 q 746 707 757 725 q 724 672 735 689 q 672 609 700 639 q 614 551 644 579 q 585 528 600 539 q 554 508 571 517 q 609 453 576 476 q 668 399 642 429 q 704 481 690 438 q 746 561 718 525 q 772 581 757 576 q 832 582 801 590 q 918 543 879 571 q 949 510 938 531 q 963 468 961 490 q 958 420 965 444 q 940 374 951 396 q 908 314 926 342 q 868 258 889 286 q 925 224 897 243 q 972 176 953 204 q 991 142 983 161 q 997 103 999 122 q 963 29 994 61 m 360 756 q 378 703 365 728 q 411 657 392 678 q 465 690 439 672 q 511 731 492 707 q 529 756 522 742 q 538 786 536 771 q 531 824 540 807 q 503 853 521 842 q 461 867 483 864 q 419 867 439 871 q 383 849 399 863 q 361 815 368 836 q 356 785 356 800 q 360 756 357 771 m 403 181 q 469 193 438 178 q 501 214 486 201 q 529 240 515 226 q 494 271 519 247 q 440 321 468 294 q 386 372 411 347 q 353 404 361 396 q 319 369 336 388 q 294 329 303 351 q 289 276 283 301 q 310 229 294 250 q 349 195 325 208 q 403 181 374 182 z "},"'":{"ha":265,"x_min":46,"x_max":224,"o":"m 129 689 q 85 685 108 682 q 53 710 61 689 q 49 740 49 718 q 49 787 49 763 q 51 833 50 811 q 50 865 51 856 q 49 887 50 872 q 47 918 47 901 q 46 949 46 935 q 49 971 46 964 q 59 988 51 981 q 75 999 67 994 q 104 1006 88 1003 q 139 1007 121 1008 q 172 1001 157 1006 q 197 989 188 997 q 217 953 211 976 q 223 904 222 931 q 220 852 224 878 q 213 808 217 826 q 201 768 207 789 q 182 731 194 747 q 129 689 164 701 z "},"‚":{"ha":265,"x_min":46,"x_max":224,"o":"m 129 689 q 85 685 108 682 q 53 710 61 689 q 49 740 49 718 q 49 787 49 763 q 51 833 50 811 q 50 865 51 856 q 49 887 50 872 q 47 918 47 901 q 46 949 46 935 q 49 971 46 964 q 59 988 51 981 q 75 999 67 994 q 104 1006 88 1003 q 139 1007 121 1008 q 172 1001 157 1006 q 197 989 188 997 q 217 953 211 976 q 223 904 222 931 q 220 852 224 878 q 213 808 217 826 q 201 768 207 789 q 182 731 194 747 q 129 689 164 701 z "},"‛":{"ha":265,"x_min":46,"x_max":224,"o":"m 129 689 q 85 685 108 682 q 53 710 61 689 q 49 740 49 718 q 49 787 49 763 q 51 833 50 811 q 50 865 51 856 q 49 887 50 872 q 47 918 47 901 q 46 949 46 935 q 49 971 46 964 q 59 988 51 981 q 75 999 67 994 q 104 1006 88 1003 q 139 1007 121 1008 q 172 1001 157 1006 q 197 989 188 997 q 217 953 211 976 q 223 904 222 931 q 220 852 224 878 q 213 808 217 826 q 201 768 207 789 q 182 731 194 747 q 129 689 164 701 z "},"‹":{"ha":265,"x_min":46,"x_max":224,"o":"m 129 689 q 85 685 108 682 q 53 710 61 689 q 49 740 49 718 q 49 787 49 763 q 51 833 50 811 q 50 865 51 856 q 49 887 50 872 q 47 918 47 901 q 46 949 46 935 q 49 971 46 964 q 59 988 51 981 q 75 999 67 994 q 104 1006 88 1003 q 139 1007 121 1008 q 172 1001 157 1006 q 197 989 188 997 q 217 953 211 976 q 223 904 222 931 q 220 852 224 878 q 213 808 217 826 q 201 768 207 789 q 182 731 194 747 q 129 689 164 701 z "},"›":{"ha":265,"x_min":46,"x_max":224,"o":"m 129 689 q 85 685 108 682 q 53 710 61 689 q 49 740 49 718 q 49 787 49 763 q 51 833 50 811 q 50 865 51 856 q 49 887 50 872 q 47 918 47 901 q 46 949 46 935 q 49 971 46 964 q 59 988 51 981 q 75 999 67 994 q 104 1006 88 1003 q 139 1007 121 1008 q 172 1001 157 1006 q 197 989 188 997 q 217 953 211 976 q 223 904 222 931 q 220 852 224 878 q 213 808 217 826 q 201 768 207 789 q 182 731 194 747 q 129 689 164 701 z "},"(":{"ha":619,"x_min":57,"x_max":572,"o":"m 508 211 q 549 142 542 181 q 544 68 557 103 q 499 10 531 33 q 424 -14 468 -14 q 349 3 385 -14 q 281 40 313 19 q 175 134 222 81 q 100 251 128 188 q 68 356 78 301 q 58 464 58 410 q 105 707 57 588 q 238 917 153 826 q 297 973 265 946 q 364 1019 328 1000 q 415 1042 388 1033 q 471 1043 443 1050 q 508 1026 490 1039 q 540 995 526 1014 q 563 956 554 976 q 571 914 571 935 q 564 872 572 893 q 542 835 556 851 q 506 799 525 815 q 465 767 486 782 q 424 735 444 751 q 386 701 404 719 q 339 631 357 671 q 315 550 321 592 q 324 434 308 493 q 375 331 339 375 q 440 268 403 294 q 508 211 476 242 z "},")":{"ha":618,"x_min":47,"x_max":565,"o":"m 221 -11 q 133 2 171 -19 q 79 60 96 24 q 69 138 63 96 q 113 213 75 179 q 172 263 142 239 q 229 314 203 286 q 301 452 285 372 q 289 610 317 532 q 270 652 282 632 q 243 692 258 672 q 203 730 225 713 q 159 764 182 747 q 115 798 136 781 q 76 836 93 815 q 53 882 58 858 q 50 924 47 901 q 63 968 53 947 q 88 1006 72 989 q 121 1033 103 1024 q 156 1044 136 1043 q 193 1043 175 1046 q 244 1025 221 1038 q 290 997 268 1013 q 407 888 356 951 q 493 754 458 825 q 536 641 519 700 q 558 522 553 582 q 555 379 565 451 q 515 242 544 307 q 449 139 490 186 q 360 56 408 92 q 293 14 328 32 q 221 -11 258 -4 z "},"*":{"ha":444,"x_min":39,"x_max":404,"o":"m 267 682 q 230 663 254 663 q 193 683 206 663 q 181 714 185 697 q 175 747 178 731 q 150 717 163 732 q 121 692 138 703 q 96 685 108 683 q 74 693 83 686 q 58 713 64 700 q 56 740 53 725 q 67 763 57 750 q 88 788 76 775 q 113 810 100 800 q 132 826 125 821 q 92 850 111 838 q 57 882 72 863 q 43 908 47 893 q 44 936 39 924 q 63 958 49 949 q 90 964 76 967 q 110 954 97 963 q 135 935 122 946 q 160 915 149 925 q 178 900 172 904 q 176 947 176 924 q 188 992 176 971 q 227 1017 200 1017 q 269 994 254 1018 q 281 958 281 978 q 283 918 282 938 q 313 940 297 929 q 344 957 329 951 q 373 960 360 963 q 394 942 386 957 q 401 925 397 933 q 403 908 404 917 q 399 894 403 901 q 389 882 394 888 q 374 872 385 879 q 353 858 364 865 q 331 845 342 851 q 317 836 321 839 q 347 809 332 822 q 376 779 363 796 q 388 757 385 769 q 388 733 390 744 q 378 714 386 722 q 358 704 371 706 q 340 706 349 703 q 322 713 331 708 q 299 728 310 719 q 279 747 289 738 q 278 714 279 731 q 267 682 276 697 z "},"+":{"ha":718,"x_min":36,"x_max":686,"o":"m 397 117 q 353 110 378 106 q 310 125 329 114 q 280 156 290 136 q 263 197 269 176 q 252 261 254 229 q 249 325 250 293 q 170 328 210 326 q 94 346 131 331 q 56 375 69 356 q 39 418 42 394 q 44 466 36 442 q 71 510 51 490 q 107 533 86 525 q 149 547 128 542 q 197 554 172 553 q 247 557 222 556 q 248 603 247 581 q 253 649 249 625 q 260 685 256 667 q 275 718 264 703 q 324 750 293 743 q 387 744 354 757 q 439 707 419 732 q 455 677 449 693 q 465 646 461 661 q 478 553 475 600 q 553 541 515 549 q 624 517 590 533 q 642 503 635 511 q 658 488 650 496 q 683 426 686 463 q 651 364 679 389 q 619 342 638 349 q 581 331 600 335 q 530 324 556 325 q 479 322 504 322 q 470 244 476 283 q 447 169 464 206 q 422 136 438 147 q 410 125 415 131 q 397 117 404 119 z "},",":{"ha":306,"x_min":35,"x_max":272,"o":"m 150 -183 q 124 -186 136 -189 q 103 -174 111 -183 q 91 -152 94 -165 q 92 -125 88 -139 q 103 -99 94 -115 q 122 -63 113 -82 q 138 -27 132 -44 q 143 0 144 -10 q 113 3 128 3 q 83 11 97 4 q 46 49 57 22 q 35 101 35 74 q 46 151 36 128 q 74 193 56 175 q 119 221 93 211 q 179 226 149 232 q 232 200 210 219 q 254 171 246 189 q 270 108 268 142 q 265 43 272 75 q 239 -47 257 -3 q 196 -131 221 -90 q 176 -161 186 -146 q 150 -183 167 -176 z "},"-":{"ha":715,"x_min":35,"x_max":682,"o":"m 531 324 q 484 322 515 322 q 413 323 453 322 q 330 324 374 324 q 247 326 286 325 q 177 330 208 328 q 131 335 146 332 q 84 349 107 339 q 49 379 61 360 q 37 414 39 394 q 39 452 35 433 q 53 488 43 471 q 78 517 64 504 q 110 536 92 529 q 147 547 128 543 q 198 554 172 553 q 249 557 224 556 q 362 558 306 560 q 475 553 418 557 q 550 542 513 550 q 622 517 588 533 q 640 503 632 511 q 657 488 649 496 q 676 456 671 474 q 680 421 682 439 q 668 386 678 403 q 643 357 658 369 q 590 333 619 339 q 531 324 560 326 z "},".":{"ha":300,"x_min":36,"x_max":265,"o":"m 181 11 q 97 15 138 -3 q 43 74 57 32 q 37 117 36 94 q 43 160 38 139 q 103 236 54 211 q 123 243 113 240 q 144 244 133 246 q 192 236 169 244 q 231 213 214 228 q 256 178 247 199 q 264 133 265 158 q 253 83 263 108 q 225 39 243 58 q 181 11 206 18 z "},"/":{"ha":629,"x_min":32,"x_max":594,"o":"m 168 -28 q 144 -40 157 -35 q 118 -46 132 -46 q 63 -21 86 -47 q 35 38 39 6 q 41 92 32 56 q 63 168 50 128 q 88 245 75 208 q 106 299 100 282 q 199 548 150 425 q 303 793 249 671 q 368 911 331 857 q 405 959 385 936 q 449 1001 425 982 q 482 1023 464 1014 q 519 1031 500 1032 q 554 1020 538 1031 q 581 994 571 1010 q 592 961 589 979 q 593 925 594 943 q 587 874 592 899 q 575 825 582 849 q 568 806 574 819 q 556 778 563 793 q 544 749 550 763 q 536 732 538 736 q 429 485 483 607 q 321 239 375 363 q 276 137 297 188 q 222 38 254 86 q 198 3 211 19 q 168 -28 185 -14 z "},":":{"ha":344,"x_min":49,"x_max":297,"o":"m 213 475 q 130 478 171 461 q 75 538 89 496 q 69 581 68 558 q 75 624 69 603 q 135 700 85 674 q 178 708 157 710 q 224 700 201 708 q 263 677 246 692 q 288 642 279 663 q 296 597 297 622 q 285 547 294 572 q 257 503 275 522 q 213 475 238 482 m 193 103 q 110 106 150 89 q 56 165 69 124 q 49 208 49 186 q 56 251 50 231 q 115 326 67 303 q 157 336 136 338 q 204 326 182 335 q 243 303 226 318 q 269 269 260 289 q 276 225 278 249 q 265 175 275 200 q 238 131 256 150 q 193 103 218 110 z "},";":{"ha":365,"x_min":47,"x_max":317,"o":"m 232 475 q 149 478 189 461 q 94 538 108 496 q 88 581 88 558 q 94 624 89 603 q 154 700 104 674 q 174 707 164 704 q 196 708 185 710 q 242 700 219 708 q 281 677 264 692 q 307 642 297 663 q 315 597 317 622 q 304 547 314 572 q 276 503 294 522 q 232 475 257 482 m 163 -117 q 136 -119 149 -122 q 115 -106 124 -115 q 103 -84 107 -97 q 104 -57 100 -71 q 116 -31 107 -49 q 135 5 125 -14 q 151 40 144 24 q 156 67 157 57 q 125 70 140 69 q 96 78 110 71 q 58 115 69 89 q 48 167 47 140 q 58 218 49 194 q 87 260 68 242 q 132 288 106 278 q 192 292 161 299 q 244 267 222 286 q 257 253 251 261 q 267 238 263 246 q 283 175 281 208 q 278 110 285 142 q 251 21 269 64 q 208 -62 233 -22 q 189 -94 199 -78 q 163 -117 179 -110 z "},"<":{"ha":551,"x_min":39,"x_max":504,"o":"m 428 132 q 401 126 415 126 q 372 128 386 125 q 313 153 351 132 q 233 199 274 174 q 155 250 192 225 q 101 288 118 275 q 78 307 90 297 q 60 329 67 317 q 44 369 49 347 q 44 413 39 392 q 75 475 53 446 q 124 528 97 504 q 199 589 160 561 q 278 644 238 617 q 310 666 290 654 q 349 686 329 678 q 389 698 369 694 q 422 693 408 701 q 457 665 442 682 q 483 629 472 649 q 499 597 493 614 q 501 563 504 579 q 487 535 499 547 q 461 517 475 524 q 424 497 449 508 q 373 472 399 486 q 327 444 347 458 q 303 414 307 429 q 303 397 300 406 q 314 382 307 389 q 330 368 321 375 q 346 357 339 361 q 406 322 375 338 q 467 289 436 306 q 489 265 483 279 q 492 233 494 250 q 483 197 490 215 q 465 164 475 179 q 428 132 453 143 z "},"=":{"ha":750,"x_min":49,"x_max":701,"o":"m 550 503 q 471 501 528 501 q 350 502 414 501 q 229 506 286 503 q 150 514 172 510 q 103 528 126 518 q 68 557 81 538 q 57 592 58 572 q 60 630 56 611 q 74 665 64 649 q 97 694 83 682 q 131 714 113 707 q 167 725 149 721 q 217 733 192 731 q 269 736 243 735 q 382 737 326 739 q 494 731 438 735 q 570 720 532 728 q 642 694 608 713 q 660 681 653 689 q 676 667 668 674 q 696 635 690 653 q 699 599 701 617 q 688 564 697 581 q 663 535 678 547 q 609 510 639 517 q 550 503 579 504 m 544 196 q 498 194 529 194 q 427 195 467 194 q 344 197 388 196 q 261 199 300 197 q 191 202 222 200 q 144 207 160 204 q 98 222 121 211 q 63 251 75 232 q 51 286 53 267 q 53 324 49 306 q 67 360 57 343 q 92 389 78 376 q 124 408 106 401 q 161 418 142 414 q 212 426 186 425 q 263 429 238 428 q 376 431 319 432 q 489 425 432 429 q 564 414 526 422 q 636 389 601 406 q 654 376 646 383 q 671 360 663 368 q 690 328 685 346 q 694 293 696 311 q 682 258 692 275 q 657 229 672 242 q 603 205 633 211 q 544 196 574 199 z "},">":{"ha":553,"x_min":47,"x_max":514,"o":"m 217 140 q 169 126 194 129 q 121 133 143 122 q 87 164 100 143 q 67 207 74 185 q 60 242 60 224 q 71 276 60 261 q 90 292 75 282 q 123 310 106 301 q 156 328 140 319 q 179 340 172 336 q 199 351 188 344 q 221 367 210 358 q 240 386 232 376 q 250 404 249 396 q 238 431 251 417 q 213 453 224 446 q 153 485 185 472 q 90 517 121 499 q 66 535 78 524 q 51 563 54 547 q 53 597 47 579 q 71 633 60 615 q 97 667 82 651 q 125 690 111 682 q 165 699 142 701 q 222 679 194 694 q 272 647 249 664 q 357 588 315 617 q 436 522 399 558 q 481 469 460 499 q 510 407 503 440 q 506 359 514 383 q 483 317 499 335 q 433 275 469 301 q 355 222 397 249 q 274 172 313 194 q 217 140 235 149 z "},"?":{"ha":800,"x_min":38,"x_max":763,"o":"m 444 329 q 402 327 425 326 q 359 333 379 328 q 324 350 339 339 q 303 381 308 361 q 299 434 296 407 q 313 486 303 461 q 340 529 322 510 q 379 563 358 549 q 440 591 408 581 q 504 614 472 601 q 535 636 524 624 q 544 669 547 651 q 524 697 540 688 q 490 707 508 706 q 453 707 471 708 q 414 699 433 706 q 375 686 394 693 q 296 649 335 669 q 213 622 257 629 q 140 626 176 615 q 107 644 122 633 q 79 671 92 656 q 53 719 63 692 q 40 775 43 746 q 42 833 38 804 q 57 888 46 863 q 96 936 69 915 q 151 968 122 957 q 233 993 192 983 q 317 1013 275 1003 q 453 1028 386 1029 q 640 976 550 1021 q 707 924 681 957 q 752 826 742 879 q 753 721 763 774 q 717 619 744 668 q 647 533 689 569 q 607 506 628 518 q 567 479 586 494 q 554 468 560 474 q 544 456 549 463 q 531 415 533 436 q 518 374 529 393 q 487 343 507 354 q 444 329 467 332 m 482 7 q 419 -4 451 -4 q 360 6 388 -4 q 310 38 332 17 q 279 89 289 58 q 275 142 272 114 q 292 193 278 171 q 322 225 303 213 q 363 243 342 238 q 419 254 390 250 q 472 247 447 258 q 533 207 508 235 q 562 152 556 182 q 560 94 568 122 q 533 42 553 65 q 482 7 513 18 z "},"@":{"ha":1144,"x_min":50,"x_max":1094,"o":"m 717 -82 q 578 -89 647 -93 q 439 -69 508 -85 q 278 -4 356 -51 q 147 110 200 43 q 89 214 111 157 q 60 329 67 271 q 73 542 50 435 q 150 740 96 650 q 216 828 178 788 q 299 901 254 869 q 481 994 382 960 q 679 1028 579 1029 q 784 1015 732 1026 q 882 979 836 1004 q 951 931 918 960 q 1007 868 983 903 q 1073 736 1051 808 q 1092 590 1094 664 q 1063 460 1089 525 q 988 351 1036 396 q 941 320 968 332 q 885 304 914 308 q 826 302 856 300 q 772 315 797 304 q 701 374 729 333 q 697 371 699 379 q 693 357 696 363 q 625 292 669 311 q 574 278 601 281 q 524 286 547 276 q 469 325 490 299 q 438 385 449 351 q 428 455 428 418 q 436 525 428 492 q 476 609 447 569 q 546 669 506 649 q 607 688 574 685 q 669 678 640 690 q 703 659 688 671 q 728 629 718 647 q 742 583 739 607 q 754 536 744 560 q 774 507 760 519 q 806 488 789 494 q 842 483 824 482 q 876 494 861 485 q 905 524 894 506 q 921 563 915 543 q 925 626 928 593 q 910 688 922 658 q 877 743 897 718 q 831 785 857 768 q 744 817 792 810 q 649 821 696 825 q 550 796 599 814 q 461 749 501 778 q 390 676 421 721 q 340 569 358 629 q 322 447 322 508 q 341 328 322 385 q 403 233 360 272 q 467 194 431 208 q 540 174 503 179 q 665 175 603 165 q 788 204 728 185 q 843 215 817 214 q 913 192 883 218 q 944 125 942 165 q 922 32 947 78 q 854 -36 896 -14 q 788 -65 822 -54 q 717 -82 753 -75 m 601 410 q 631 414 615 403 q 657 436 647 425 q 674 464 667 447 q 685 498 682 481 q 688 531 689 515 q 678 560 686 547 q 663 572 672 567 q 646 575 654 576 q 629 570 636 575 q 615 558 622 565 q 599 533 607 549 q 585 501 590 518 q 576 468 579 485 q 578 439 574 451 q 586 421 581 429 q 601 410 592 413 z "},"A":{"ha":899,"x_min":15,"x_max":872,"o":"m 689 -39 q 651 -39 669 -40 q 615 -31 632 -37 q 558 19 575 -15 q 538 77 543 47 q 529 138 532 107 q 515 242 522 190 q 492 344 507 294 q 481 377 488 361 q 465 407 475 393 q 457 419 463 413 q 446 425 451 425 q 433 418 440 425 q 424 407 426 411 q 403 365 410 388 q 394 318 397 342 q 382 238 388 278 q 369 157 376 197 q 356 92 363 125 q 333 29 349 60 q 318 7 326 18 q 299 -11 310 -4 q 278 -19 289 -17 q 256 -24 267 -21 q 201 -26 228 -26 q 146 -22 174 -25 q 100 -15 122 -19 q 57 1 78 -10 q 40 13 49 6 q 29 29 32 19 q 23 117 15 61 q 48 235 31 174 q 85 353 65 296 q 118 442 106 410 q 175 614 149 528 q 233 786 201 700 q 279 886 253 838 q 346 969 306 935 q 394 999 367 989 q 449 1013 421 1008 q 528 1012 488 1018 q 603 986 569 1006 q 654 935 633 967 q 689 869 675 903 q 724 753 713 813 q 751 633 736 693 q 802 424 776 528 q 850 213 828 319 q 863 152 857 182 q 871 90 868 122 q 869 56 872 74 q 856 25 865 39 q 830 0 846 10 q 797 -17 814 -10 q 744 -32 772 -28 q 689 -39 717 -36 m 389 581 q 392 560 388 569 q 407 551 396 550 q 454 553 431 554 q 501 554 478 553 q 512 563 510 554 q 515 579 514 571 q 514 620 517 600 q 507 660 511 640 q 482 728 500 697 q 468 743 474 739 q 447 741 457 751 q 429 718 436 731 q 402 651 413 686 q 389 581 392 617 m 43 196 l 42 193 q 44 194 43 193 l 43 196 z "},"B":{"ha":897,"x_min":58,"x_max":861,"o":"m 589 -12 q 466 -41 529 -32 q 340 -47 403 -50 q 267 -36 304 -44 q 200 -7 231 -28 q 159 33 176 10 q 131 83 142 57 q 111 149 118 115 q 97 215 104 182 q 68 429 78 322 q 61 644 58 536 q 67 739 63 692 q 85 832 72 786 q 154 958 104 904 q 212 1007 181 986 q 279 1040 243 1028 q 387 1059 331 1058 q 496 1050 443 1060 q 604 1019 551 1042 q 701 963 657 997 q 744 919 725 943 q 775 868 764 896 q 789 826 785 849 q 794 782 793 804 q 783 723 794 751 q 757 667 772 694 q 706 599 736 631 q 644 540 676 568 q 635 535 640 538 q 626 528 631 532 q 644 524 629 526 q 663 521 660 521 q 742 493 703 513 q 808 444 781 474 q 849 374 836 415 q 860 294 861 336 q 847 213 858 251 q 810 138 835 172 q 753 76 785 104 q 675 24 717 46 q 589 -12 633 3 m 363 638 q 383 630 371 631 q 407 629 396 629 q 465 642 436 632 q 513 667 493 651 q 541 703 533 682 q 536 751 549 725 q 496 801 522 783 q 451 819 476 814 q 403 825 426 825 q 378 820 390 824 q 358 806 365 817 q 345 772 347 790 q 340 733 343 753 q 340 710 339 724 q 343 682 340 696 q 351 656 346 668 q 363 638 356 643 m 392 188 q 424 179 406 179 q 462 184 443 179 q 498 199 481 189 q 528 219 515 208 q 560 278 556 244 q 549 332 563 307 q 501 369 532 358 q 475 378 492 374 q 441 386 458 383 q 407 390 424 389 q 381 386 390 390 q 363 369 368 379 q 352 338 357 360 q 350 306 347 317 q 356 267 354 286 q 364 229 358 249 q 374 206 368 218 q 392 188 381 194 z "},"C":{"ha":836,"x_min":44,"x_max":796,"o":"m 549 14 q 465 -4 508 -1 q 378 0 421 -7 q 294 25 335 7 q 219 71 253 43 q 138 158 172 107 q 85 267 104 210 q 51 416 58 339 q 50 569 44 493 q 83 742 56 657 q 161 899 110 828 q 251 986 197 949 q 364 1039 304 1024 q 447 1051 404 1050 q 531 1044 490 1051 q 650 997 599 1036 q 658 994 656 994 q 677 979 665 990 q 701 954 689 968 q 725 927 714 940 q 740 907 736 914 q 772 844 760 879 q 778 778 785 810 q 754 723 772 750 q 710 674 736 696 q 655 638 685 653 q 597 619 625 622 q 559 622 578 617 q 525 638 540 626 q 479 690 497 658 q 432 739 461 721 q 396 749 415 749 q 360 738 376 749 q 329 708 342 726 q 310 671 317 690 q 306 662 307 667 q 301 654 304 657 q 301 644 303 651 q 297 635 299 638 q 288 577 290 607 q 285 518 285 547 q 288 456 285 486 q 300 396 290 425 q 325 344 308 369 q 368 311 342 319 q 416 312 392 304 q 460 335 440 319 q 524 396 496 361 q 588 454 551 431 q 651 474 618 475 q 713 455 685 472 q 761 408 740 438 q 789 340 782 378 q 785 270 796 306 q 758 203 775 235 q 670 90 725 140 q 549 14 615 39 z "},"D":{"ha":875,"x_min":65,"x_max":835,"o":"m 443 -10 q 388 -17 425 -14 q 310 -22 350 -21 q 233 -22 269 -24 q 178 -15 196 -21 q 115 36 138 -3 q 95 94 101 64 q 85 154 89 124 q 76 273 78 214 q 75 392 75 332 q 70 590 75 492 q 78 788 65 689 q 94 868 85 828 q 122 944 103 908 q 151 985 133 967 q 190 1014 168 1003 q 263 1035 224 1031 q 339 1039 301 1039 q 456 1028 397 1039 q 567 993 514 1017 q 653 942 611 972 q 724 872 694 913 q 786 757 763 819 q 821 629 810 694 q 832 473 835 553 q 803 318 829 393 q 728 172 776 242 q 610 60 679 103 q 529 19 571 36 q 443 -10 488 1 m 396 329 q 419 326 406 325 q 448 332 433 326 q 475 345 463 338 q 496 361 488 353 q 514 388 507 372 q 526 418 521 403 q 540 499 539 457 q 532 582 540 542 q 469 694 517 647 q 448 712 460 704 q 424 724 436 719 q 398 726 411 728 q 375 715 385 725 q 357 679 363 704 q 349 626 351 654 q 348 570 347 597 q 349 526 349 543 q 351 465 350 496 q 360 406 353 435 q 365 385 361 397 q 372 363 368 374 q 383 342 376 351 q 396 329 389 332 z "},"E":{"ha":811,"x_min":68,"x_max":774,"o":"m 651 3 q 477 -22 567 -17 q 303 -6 388 -26 q 205 28 253 6 q 121 89 157 51 q 90 133 101 108 q 75 186 79 158 q 72 218 72 201 q 71 251 72 235 q 73 443 68 347 q 82 635 78 539 q 83 651 82 639 q 83 676 83 663 q 84 701 83 689 q 85 718 85 714 q 83 760 85 729 q 81 826 82 792 q 80 892 81 861 q 81 933 79 922 q 87 959 83 947 q 97 982 90 971 q 133 1004 111 1000 q 167 1007 150 1007 q 201 1006 185 1007 q 289 1008 246 1004 q 376 1011 332 1011 q 438 1012 393 1011 q 531 1012 482 1013 q 624 1010 581 1011 q 685 1004 668 1008 q 711 996 699 1001 q 732 979 724 990 q 761 888 764 939 q 742 829 761 856 q 715 802 731 814 q 681 783 699 790 q 624 769 653 772 q 565 767 594 767 q 497 767 531 767 q 429 764 464 767 q 413 763 424 764 q 390 760 401 761 q 367 756 378 758 q 353 749 357 753 q 345 736 349 744 q 340 717 342 728 q 337 697 338 707 q 336 681 336 686 q 336 656 335 672 q 344 632 338 639 q 364 624 350 626 q 394 621 378 621 q 425 622 410 621 q 449 622 440 622 q 516 627 482 625 q 585 626 550 629 q 620 623 597 626 q 650 610 643 619 q 658 588 654 603 q 663 557 661 574 q 666 525 665 540 q 665 501 667 510 q 647 454 661 474 q 613 424 633 436 q 571 407 593 413 q 506 399 539 399 q 439 396 472 399 q 401 393 426 396 q 368 381 376 390 q 362 367 364 376 q 358 346 360 357 q 355 324 356 335 q 354 308 354 314 q 358 280 356 299 q 368 254 360 261 q 431 240 386 239 q 528 245 476 240 q 628 256 581 250 q 700 258 676 263 q 738 243 719 256 q 759 210 751 231 q 770 168 767 190 q 771 123 774 146 q 761 83 768 100 q 748 60 756 71 q 731 40 740 50 q 693 17 714 26 q 651 3 672 8 z "},"F":{"ha":782,"x_min":69,"x_max":763,"o":"m 396 50 q 365 14 388 28 q 313 -8 342 0 q 254 -19 285 -17 q 200 -21 224 -22 q 169 -18 185 -21 q 142 -4 153 -15 q 120 37 129 8 q 105 99 111 65 q 94 163 99 132 q 89 211 90 194 q 72 493 74 353 q 76 776 69 633 q 78 835 78 806 q 85 893 78 865 q 93 920 88 907 q 108 944 99 933 q 138 962 117 953 q 182 978 158 971 q 228 992 206 986 q 261 1000 250 997 q 378 1019 319 1014 q 497 1025 438 1025 q 540 1024 511 1025 q 602 1021 569 1024 q 664 1014 635 1018 q 706 1003 693 1010 q 739 970 726 992 q 757 923 751 949 q 761 869 763 897 q 754 819 760 842 q 714 759 743 782 q 646 736 685 736 q 576 738 618 736 q 490 739 533 740 q 409 728 446 738 q 356 699 372 719 q 344 658 344 685 q 353 617 344 632 q 367 606 357 610 q 388 601 376 603 q 411 600 400 600 q 431 600 422 600 q 496 604 463 601 q 561 606 529 607 q 592 601 576 604 q 622 592 607 599 q 649 569 638 585 q 661 534 658 553 q 665 496 664 515 q 665 465 665 483 q 660 426 664 446 q 651 390 657 407 q 635 365 644 374 q 598 349 619 353 q 557 346 576 346 q 522 347 544 346 q 473 350 499 349 q 425 350 447 351 q 393 342 403 349 q 382 324 385 335 q 378 301 379 313 q 382 210 375 256 q 397 119 389 164 q 401 85 400 103 q 396 50 403 67 z "},"G":{"ha":950,"x_min":35,"x_max":913,"o":"m 663 4 q 551 -23 610 -19 q 435 -15 492 -26 q 307 23 369 -4 q 196 94 244 50 q 135 166 161 126 q 92 250 108 206 q 43 468 51 353 q 68 689 35 583 q 121 806 88 750 q 200 904 154 861 q 314 986 250 953 q 447 1026 378 1019 q 455 1028 449 1026 q 463 1029 461 1029 q 542 1035 503 1036 q 621 1029 581 1033 q 690 1017 656 1024 q 757 997 725 1011 q 801 963 786 986 q 815 919 814 944 q 812 869 817 894 q 797 819 807 843 q 774 778 786 794 q 722 732 754 747 q 651 725 689 717 q 584 747 617 733 q 515 768 551 761 q 459 771 488 774 q 406 756 431 768 q 360 719 379 743 q 326 669 340 696 q 297 574 304 625 q 293 474 290 524 q 303 399 296 436 q 326 328 311 361 q 345 292 335 308 q 371 261 356 275 q 506 203 426 206 q 586 215 546 201 q 658 251 626 228 q 683 272 669 260 q 706 299 696 285 q 720 329 715 314 q 721 358 725 344 q 690 383 714 381 q 642 378 665 385 q 588 363 614 371 q 535 350 563 356 q 492 348 514 347 q 451 360 469 349 q 423 390 435 369 q 405 435 411 411 q 398 485 399 460 q 401 529 397 510 q 419 568 406 550 q 451 597 432 586 q 538 635 492 622 q 629 651 583 647 q 640 653 632 653 q 651 653 649 653 q 723 651 688 654 q 792 636 758 647 q 879 567 847 617 q 906 502 899 538 q 913 432 913 467 q 889 280 911 356 q 822 142 867 204 q 751 61 790 99 q 663 4 711 24 z "},"H":{"ha":1001,"x_min":74,"x_max":931,"o":"m 267 -26 q 207 -29 238 -29 q 149 -19 176 -29 q 104 8 121 -12 q 91 32 94 19 q 85 58 88 44 q 85 88 85 67 q 85 135 85 110 q 85 181 85 160 q 85 211 85 203 q 83 265 83 226 q 83 353 83 303 q 81 460 82 404 q 81 566 81 515 q 80 655 81 617 q 79 708 79 693 q 76 801 78 754 q 85 893 74 847 q 99 935 89 914 q 129 968 110 956 q 167 987 146 981 q 210 996 188 993 q 297 997 250 1001 q 335 993 317 996 q 369 983 353 990 q 390 973 381 979 q 404 957 399 967 q 419 924 415 942 q 424 886 422 906 q 423 767 429 826 q 415 646 417 707 q 416 615 415 631 q 418 583 417 599 q 510 585 464 586 q 600 578 556 583 q 599 611 600 586 q 599 665 599 636 q 599 719 599 694 q 599 753 599 744 q 603 844 600 799 q 618 935 606 890 q 634 971 622 954 q 663 999 646 988 q 718 1016 688 1013 q 778 1018 749 1019 q 832 1014 804 1018 q 881 994 860 1010 q 906 967 896 983 q 919 935 915 951 q 929 853 931 894 q 925 769 928 811 q 915 513 918 640 q 915 257 913 386 q 919 184 917 221 q 919 110 921 147 q 918 78 919 94 q 911 47 917 63 q 879 5 903 21 q 826 -19 856 -11 q 763 -27 796 -26 q 701 -24 729 -28 q 659 -15 681 -21 q 622 7 638 -8 q 604 39 610 19 q 597 76 599 58 q 597 129 596 89 q 597 214 597 169 q 598 298 597 258 q 597 350 599 338 q 501 349 549 350 q 407 342 454 347 q 406 245 404 293 q 404 149 407 197 q 399 94 401 121 q 385 43 396 68 q 368 17 378 29 q 344 -4 358 4 q 306 -19 326 -15 q 267 -26 286 -24 z "},"I":{"ha":488,"x_min":65,"x_max":418,"o":"m 246 -6 q 190 -8 218 -10 q 136 6 161 -6 q 110 23 122 13 q 92 47 99 33 q 78 93 81 68 q 76 142 76 118 q 78 184 76 154 q 83 253 81 214 q 87 335 85 292 q 91 418 89 379 q 94 487 93 457 q 94 529 94 517 q 90 620 92 575 q 86 711 89 665 q 78 797 83 754 q 69 882 72 839 q 72 946 65 913 q 101 991 79 972 q 153 1022 124 1010 q 215 1038 182 1033 q 275 1043 247 1043 q 319 1038 297 1042 q 358 1024 340 1035 q 393 975 381 1008 q 411 901 406 942 q 417 821 417 861 q 418 754 418 781 q 416 577 417 665 q 410 400 415 489 q 399 274 406 336 q 381 149 393 211 q 365 86 375 117 q 331 32 354 56 q 292 7 314 17 q 246 -6 269 -3 z "},"J":{"ha":849,"x_min":22,"x_max":814,"o":"m 508 -14 q 423 -29 468 -28 q 336 -19 378 -31 q 242 17 288 -7 q 160 74 197 40 q 93 149 122 107 q 47 236 64 190 q 27 320 32 276 q 36 404 22 364 q 66 458 46 433 q 114 497 86 483 q 157 510 132 507 q 208 512 182 514 q 256 501 233 510 q 293 476 278 492 q 306 456 301 468 q 314 433 311 444 q 321 386 319 410 q 328 339 322 363 q 340 302 332 319 q 361 271 349 285 q 381 256 368 263 q 404 253 393 250 q 431 270 418 257 q 452 301 443 283 q 468 337 461 318 q 478 371 475 356 q 489 478 489 424 q 485 585 489 532 q 478 682 482 633 q 463 779 474 731 q 397 765 429 774 q 331 750 364 756 q 278 748 306 746 q 228 764 251 750 q 190 799 206 776 q 165 849 174 822 q 154 905 156 876 q 161 958 153 933 q 192 1010 171 990 q 221 1028 204 1021 q 254 1039 238 1035 q 342 1049 294 1049 q 438 1050 390 1051 q 533 1047 485 1049 q 615 1042 574 1044 q 699 1035 657 1040 q 739 1027 718 1032 q 776 1010 760 1022 q 798 983 790 999 q 810 950 806 967 q 813 906 814 929 q 804 864 811 883 q 777 820 797 840 q 733 794 757 800 q 753 623 746 708 q 757 450 761 538 q 719 228 753 336 q 688 151 707 189 q 643 82 669 114 q 581 25 615 50 q 508 -14 547 0 z "},"K":{"ha":965,"x_min":71,"x_max":935,"o":"m 251 -28 q 147 -14 196 -31 q 119 -1 132 -8 q 97 19 106 7 q 86 51 88 33 q 85 88 85 69 q 85 119 85 96 q 87 170 86 143 q 88 221 88 197 q 89 253 89 244 q 89 300 89 267 q 88 376 89 333 q 85 467 86 419 q 83 558 85 515 q 81 635 82 601 q 79 682 79 668 q 75 748 78 706 q 72 835 72 790 q 75 918 71 879 q 94 975 79 957 q 135 1003 108 993 q 192 1018 161 1014 q 255 1022 224 1022 q 307 1018 286 1022 q 331 1011 318 1015 q 350 999 343 1007 q 369 941 364 981 q 376 856 375 901 q 376 769 378 811 q 375 704 375 726 q 450 782 411 744 q 529 856 489 819 q 613 923 569 892 q 706 972 656 954 q 741 983 722 979 q 779 985 760 988 q 826 964 806 981 q 858 928 846 949 q 882 883 871 907 q 892 856 885 876 q 900 828 899 835 q 901 806 901 817 q 894 783 900 794 q 875 755 888 768 q 847 731 863 742 q 764 674 807 700 q 678 621 721 647 q 594 567 635 594 q 511 514 553 540 q 511 513 508 513 q 517 511 514 514 q 600 452 557 479 q 688 399 643 425 q 776 347 732 374 q 861 290 819 321 q 895 263 879 278 q 922 228 911 247 q 935 181 935 207 q 924 135 935 158 q 897 92 914 113 q 860 56 881 71 q 818 33 839 40 q 751 31 785 22 q 683 58 715 39 q 622 99 651 78 q 492 201 554 147 q 368 313 429 254 q 375 230 372 271 q 379 149 378 189 q 379 94 381 121 q 369 42 378 67 q 357 15 365 28 q 338 -4 349 3 q 297 -21 318 -15 q 251 -28 275 -26 z "},"L":{"ha":728,"x_min":67,"x_max":717,"o":"m 606 -7 q 542 -7 574 -10 q 478 -1 510 -4 q 446 -3 463 0 q 414 -7 429 -7 q 371 -7 401 -7 q 306 -6 340 -7 q 240 -3 271 -4 q 199 1 210 -1 q 151 28 175 7 q 126 60 136 42 q 110 99 117 79 q 85 186 94 142 q 74 276 76 231 q 69 460 67 368 q 78 646 72 553 q 80 692 78 657 q 84 766 82 726 q 88 840 86 806 q 90 886 89 875 q 94 917 92 897 q 99 956 96 936 q 108 994 103 976 q 121 1019 113 1013 q 139 1028 126 1025 q 165 1032 151 1031 q 191 1033 178 1033 q 213 1033 204 1033 q 284 1031 249 1033 q 356 1021 319 1029 q 388 1008 372 1017 q 413 983 403 999 q 424 954 421 969 q 428 924 426 939 q 428 867 431 896 q 422 808 426 838 q 396 624 411 715 q 371 439 381 532 q 365 359 368 399 q 369 281 363 319 q 372 269 371 275 q 378 260 374 264 q 390 255 383 256 q 401 256 396 254 q 438 260 421 257 q 474 267 456 264 q 535 276 504 272 q 597 281 565 279 q 636 279 617 282 q 672 267 656 276 q 698 240 688 257 q 711 207 708 224 q 716 156 715 185 q 713 98 717 126 q 698 46 708 69 q 669 10 688 22 q 639 -3 656 0 q 606 -7 622 -6 z "},"M":{"ha":1215,"x_min":72,"x_max":1144,"o":"m 1114 0 q 1065 -26 1094 -21 q 1008 -32 1036 -32 q 938 -25 974 -32 q 879 7 903 -18 q 852 64 857 31 q 847 129 847 97 q 855 330 847 229 q 863 531 863 431 q 813 417 839 474 q 746 314 786 361 q 681 265 718 282 q 605 246 644 247 q 528 259 565 244 q 464 307 492 274 q 435 349 447 326 q 411 394 422 371 q 383 465 396 429 q 354 535 369 500 q 363 327 356 431 q 369 119 371 224 q 364 65 368 93 q 344 17 360 38 q 304 -13 329 -3 q 250 -27 279 -24 q 192 -28 221 -31 q 140 -17 163 -25 q 119 -7 129 -12 q 101 7 110 -1 q 78 56 82 26 q 72 114 74 86 q 73 154 72 126 q 76 219 74 182 q 81 297 78 257 q 85 375 83 338 q 89 440 88 413 q 92 481 90 468 q 92 496 92 485 q 92 519 92 507 q 92 543 92 532 q 92 558 92 554 q 80 672 85 615 q 75 785 75 728 q 79 853 76 819 q 93 918 82 886 q 113 961 100 940 q 146 994 126 982 q 203 1015 172 1011 q 265 1021 235 1019 q 321 1022 293 1022 q 376 1015 349 1022 q 411 1003 394 1011 q 443 985 428 996 q 481 933 463 968 q 517 852 500 897 q 548 756 533 807 q 574 658 563 706 q 595 569 586 610 q 610 503 604 528 q 641 651 625 578 q 681 797 657 725 q 702 855 692 826 q 726 911 713 883 q 749 951 738 932 q 779 983 761 969 q 817 1005 797 997 q 858 1015 838 1013 q 924 1021 890 1022 q 992 1015 958 1019 q 1031 1008 1011 1013 q 1069 992 1051 1003 q 1097 969 1085 982 q 1117 942 1110 957 q 1140 860 1136 903 q 1143 774 1144 817 q 1137 668 1142 721 q 1128 563 1132 615 q 1126 513 1126 549 q 1127 438 1126 478 q 1129 363 1128 399 q 1132 314 1131 328 q 1139 242 1135 288 q 1144 151 1143 197 q 1138 63 1144 104 q 1114 0 1132 21 z "},"N":{"ha":1049,"x_min":72,"x_max":985,"o":"m 267 -3 q 221 -15 246 -12 q 172 -13 196 -18 q 127 3 147 -8 q 96 36 107 15 q 82 70 86 51 q 76 107 78 89 q 76 155 75 121 q 78 233 76 189 q 83 326 81 276 q 88 419 86 375 q 92 497 90 463 q 93 546 93 531 q 85 705 93 625 q 72 864 76 785 q 73 897 72 881 q 76 928 74 913 q 90 971 81 950 q 115 1006 99 992 q 168 1031 136 1024 q 233 1038 200 1039 q 299 1027 267 1036 q 354 1003 331 1018 q 406 953 385 983 q 442 892 426 924 q 474 810 461 851 q 503 726 488 768 q 542 622 522 674 q 582 517 561 569 q 594 487 586 506 q 611 449 601 468 q 631 416 621 431 q 653 397 642 401 q 671 403 664 393 q 681 424 678 413 q 689 494 690 458 q 685 565 688 529 q 678 648 682 607 q 671 731 674 689 q 669 794 669 754 q 671 875 668 833 q 682 953 674 917 q 707 1006 690 989 q 731 1022 718 1017 q 760 1031 744 1028 q 810 1036 783 1036 q 860 1024 838 1036 q 892 1013 876 1024 q 921 985 908 1001 q 943 949 933 968 q 957 914 953 931 q 982 742 979 829 q 983 567 985 654 q 978 394 983 479 q 954 224 972 308 q 939 160 947 192 q 915 99 931 129 q 893 62 906 79 q 864 32 881 44 q 806 5 838 13 q 742 -3 774 -3 q 681 5 711 -3 q 625 29 651 13 q 579 69 599 44 q 544 121 560 93 q 507 190 524 154 q 476 261 490 225 q 450 330 468 282 q 410 430 432 378 q 367 528 389 482 q 332 590 346 574 q 325 542 325 565 q 324 502 324 531 q 326 436 325 474 q 329 357 328 399 q 331 278 331 315 q 333 211 332 240 q 333 171 333 182 q 329 103 332 138 q 311 39 326 69 q 292 15 304 25 q 267 -3 281 4 z "},"O":{"ha":888,"x_min":44,"x_max":846,"o":"m 589 40 q 460 11 528 15 q 329 26 393 7 q 219 82 268 44 q 171 128 193 101 q 131 182 149 154 q 72 327 90 249 q 49 483 54 406 q 52 637 44 560 q 88 785 60 714 q 130 867 104 828 q 190 935 156 906 q 250 974 218 958 q 317 997 282 989 q 419 1013 367 1011 q 521 1008 471 1015 q 585 997 553 1004 q 646 975 617 989 q 722 917 689 954 q 776 836 754 879 q 817 725 803 783 q 838 607 832 667 q 834 420 846 515 q 785 240 822 325 q 747 170 769 204 q 696 108 725 136 q 589 40 649 63 m 407 306 q 463 283 431 283 q 518 304 494 283 q 551 358 539 322 q 569 437 564 394 q 576 520 575 479 q 574 589 576 561 q 558 660 571 625 q 522 722 546 696 q 493 746 510 736 q 458 754 476 756 q 421 738 438 753 q 392 702 404 724 q 372 657 379 681 q 360 613 364 633 q 349 514 349 564 q 357 415 349 464 q 374 356 363 386 q 407 306 385 325 z "},"P":{"ha":786,"x_min":47,"x_max":761,"o":"m 293 -29 q 252 -31 276 -31 q 203 -27 228 -31 q 156 -16 178 -24 q 125 4 135 -8 q 110 43 110 22 q 110 60 108 46 q 113 76 113 74 q 115 120 115 99 q 114 164 115 142 q 107 338 113 251 q 94 511 101 424 q 79 667 88 589 q 54 821 71 744 q 58 890 47 854 q 90 954 69 926 q 135 994 108 978 q 192 1017 163 1010 q 274 1031 232 1028 q 357 1033 315 1035 q 444 1028 401 1032 q 529 1014 488 1024 q 601 987 567 1006 q 663 940 636 968 q 721 854 699 903 q 751 754 743 806 q 753 630 761 693 q 719 510 744 567 q 622 382 688 433 q 501 328 568 340 q 435 325 469 321 q 368 339 400 329 q 377 297 371 328 q 390 233 383 267 q 402 167 397 199 q 408 125 407 136 q 410 65 413 96 q 389 10 407 33 q 346 -18 374 -10 q 293 -29 318 -26 m 382 568 q 439 580 410 561 q 481 624 468 599 q 490 683 493 650 q 472 742 488 715 q 443 776 461 761 q 404 794 425 792 q 382 796 393 797 q 363 788 371 794 q 350 769 354 782 q 344 740 346 756 q 342 710 342 725 q 342 685 342 694 q 343 662 342 676 q 347 631 344 647 q 352 601 349 615 q 361 581 356 586 q 382 568 369 569 z "},"Q":{"ha":876,"x_min":36,"x_max":832,"o":"m 817 -7 q 783 -50 803 -31 q 741 -81 764 -69 q 694 -94 718 -93 q 646 -82 669 -94 q 621 -62 632 -75 q 601 -36 610 -50 q 571 21 585 -8 q 542 79 557 50 q 414 61 478 57 q 262 106 335 67 q 140 210 189 144 q 118 240 129 225 q 97 272 107 256 q 54 388 67 326 q 39 513 42 450 q 60 667 36 590 q 128 806 83 743 q 184 869 151 840 q 254 918 217 899 q 321 941 286 933 q 392 951 356 949 q 529 942 464 956 q 611 915 571 933 q 683 869 651 897 q 737 815 714 846 q 776 750 760 785 q 818 621 807 690 q 822 483 829 551 q 786 333 815 407 q 710 200 757 260 q 744 158 725 178 q 782 119 764 139 q 811 86 797 104 q 829 46 825 68 q 828 19 832 33 q 817 -7 824 4 m 324 425 q 389 389 347 397 q 465 392 431 381 q 516 426 493 403 q 550 478 539 450 q 566 551 564 513 q 557 626 568 590 q 545 651 553 640 q 528 674 538 663 q 480 706 507 696 q 424 715 453 717 q 369 701 396 714 q 324 665 343 688 q 292 610 303 642 q 282 544 282 578 q 292 480 282 511 q 324 425 303 449 z "},"R":{"ha":882,"x_min":74,"x_max":863,"o":"m 288 -17 q 247 -20 272 -19 q 194 -19 221 -21 q 144 -12 168 -18 q 108 4 121 -7 q 91 33 94 15 q 88 69 88 51 q 86 106 86 79 q 86 165 86 132 q 86 237 86 199 q 85 308 86 275 q 85 368 85 342 q 85 404 85 394 q 77 544 81 475 q 74 685 74 614 q 74 776 74 731 q 82 867 75 822 q 93 928 83 896 q 157 1011 108 982 q 196 1026 175 1022 q 236 1033 217 1031 q 354 1042 294 1042 q 472 1032 414 1042 q 567 1012 519 1025 q 654 974 614 999 q 697 942 678 960 q 732 900 717 924 q 775 710 788 811 q 748 627 768 667 q 699 556 728 588 q 612 485 660 515 q 511 433 564 456 q 613 351 558 388 q 725 285 667 314 q 769 263 747 274 q 811 238 792 253 q 833 219 822 229 q 850 196 843 208 q 856 139 863 169 q 841 101 853 122 q 814 62 829 81 q 781 28 799 43 q 746 10 763 14 q 661 11 704 -3 q 614 32 636 18 q 572 63 592 46 q 454 190 506 119 q 347 331 403 261 q 371 215 361 272 q 388 100 381 158 q 387 58 389 81 q 372 21 385 36 q 334 -5 357 3 q 288 -17 311 -12 m 343 576 q 365 573 354 571 q 388 578 376 575 q 447 602 419 585 q 494 644 475 619 q 513 696 514 669 q 495 745 511 722 q 452 785 479 768 q 394 811 425 803 q 371 815 383 814 q 347 813 358 817 q 329 797 336 808 q 317 760 321 785 q 314 708 314 735 q 316 656 314 681 q 322 615 318 631 q 329 593 325 604 q 343 576 333 582 z "},"S":{"ha":818,"x_min":46,"x_max":769,"o":"m 500 -14 q 376 -25 439 -25 q 253 -10 314 -25 q 202 6 226 -3 q 154 28 178 14 q 83 100 108 51 q 69 150 72 124 q 68 203 65 176 q 76 244 69 221 q 94 290 83 268 q 118 328 104 311 q 150 350 132 344 q 190 351 168 356 q 271 332 231 346 q 351 308 311 318 q 393 302 368 304 q 443 301 418 300 q 490 308 468 303 q 524 326 513 314 q 538 354 535 338 q 538 386 540 371 q 508 442 531 417 q 457 478 485 467 q 401 491 429 488 q 344 496 374 494 q 287 498 315 497 q 229 501 258 499 q 176 513 203 504 q 131 540 150 522 q 106 564 118 551 q 86 592 94 576 q 65 635 74 611 q 53 682 56 658 q 56 782 46 731 q 90 876 65 833 q 140 940 110 911 q 206 986 169 968 q 278 1013 240 1006 q 357 1024 317 1021 q 483 1032 419 1029 q 608 1029 546 1035 q 655 1022 632 1026 q 697 1003 678 1017 q 729 965 717 989 q 748 913 742 942 q 753 857 754 885 q 746 807 753 829 q 727 767 739 786 q 697 736 715 747 q 654 722 678 725 q 608 718 631 718 q 536 724 572 721 q 464 726 500 728 q 435 724 451 726 q 405 718 419 722 q 379 707 390 714 q 364 689 368 700 q 361 658 360 674 q 372 631 363 642 q 396 616 382 619 q 424 611 410 613 q 489 604 456 607 q 554 594 522 601 q 616 574 586 588 q 669 536 646 560 q 734 441 710 496 q 765 329 758 386 q 761 240 769 285 q 738 154 753 196 q 700 84 725 117 q 642 31 675 51 q 573 2 610 11 q 500 -14 536 -7 z "},"T":{"ha":801,"x_min":15,"x_max":788,"o":"m 518 39 q 494 15 511 25 q 457 -2 478 4 q 415 -11 436 -8 q 378 -14 393 -14 q 338 -10 361 -14 q 292 0 314 -7 q 251 17 269 7 q 226 43 233 28 q 217 78 218 60 q 214 115 215 96 q 213 267 211 192 q 219 418 215 342 q 226 543 222 481 q 238 668 231 606 q 180 656 210 661 q 121 651 150 650 q 83 658 101 653 q 50 674 65 663 q 27 711 35 686 q 17 765 19 736 q 18 822 15 793 q 25 869 21 850 q 56 933 32 903 q 113 978 81 963 q 222 1006 164 1003 q 338 1010 281 1008 q 398 1012 368 1010 q 458 1014 428 1014 q 574 1010 515 1014 q 647 1001 610 1007 q 718 979 685 994 q 764 946 749 968 q 778 913 775 931 q 785 879 782 896 q 786 818 788 849 q 779 758 785 788 q 770 725 776 742 q 753 694 764 708 q 707 663 736 671 q 672 656 690 657 q 633 656 653 656 q 615 656 629 656 q 586 658 601 657 q 557 659 571 658 q 539 660 543 660 q 537 633 538 646 q 536 606 536 619 q 532 597 536 599 q 533 592 531 596 q 535 586 535 589 q 528 413 531 499 q 525 240 525 328 q 526 198 525 226 q 528 138 528 169 q 526 79 528 107 q 518 39 524 51 z "},"U":{"ha":878,"x_min":53,"x_max":831,"o":"m 494 19 q 414 19 454 15 q 333 32 374 22 q 254 56 293 42 q 183 96 215 71 q 124 158 149 122 q 85 235 99 194 q 57 369 61 300 q 56 508 53 439 q 58 551 56 522 q 65 617 61 581 q 74 694 69 654 q 84 772 79 735 q 93 837 89 808 q 101 879 97 865 q 110 909 104 894 q 126 935 115 924 q 171 956 143 953 q 208 958 185 957 q 257 956 232 958 q 304 949 282 954 q 338 936 326 944 q 360 897 354 924 q 365 840 365 871 q 361 780 365 810 q 353 729 357 750 q 338 640 344 685 q 326 551 331 596 q 323 437 321 496 q 350 328 325 378 q 363 308 356 317 q 378 292 369 299 q 446 280 408 269 q 507 319 483 290 q 528 357 521 336 q 542 399 536 378 q 549 480 550 439 q 543 561 547 521 q 522 690 536 626 q 506 818 508 753 q 508 858 504 838 q 521 894 511 878 q 569 933 538 922 q 609 943 589 940 q 650 944 629 946 q 698 938 674 944 q 742 915 722 931 q 776 866 765 896 q 793 807 786 836 q 813 683 808 743 q 813 669 813 679 q 815 649 814 660 q 816 628 815 638 q 817 615 817 618 q 826 528 821 571 q 828 442 831 486 q 819 358 826 400 q 799 275 811 315 q 755 180 783 225 q 686 100 726 135 q 597 47 646 67 q 494 19 547 26 z "},"V":{"ha":842,"x_min":33,"x_max":808,"o":"m 610 92 q 558 38 590 60 q 489 6 526 17 q 412 -2 451 -4 q 339 17 372 0 q 278 62 304 33 q 232 122 251 90 q 157 274 186 193 q 107 436 128 354 q 63 649 79 542 q 36 865 46 757 q 47 931 33 897 q 85 985 60 965 q 168 1022 121 1013 q 260 1021 215 1032 q 303 1004 282 1015 q 336 974 324 993 q 354 926 350 953 q 358 875 358 900 q 363 689 361 782 q 378 503 365 596 q 385 460 381 482 q 396 418 389 439 q 408 387 399 406 q 428 365 417 368 q 439 366 433 363 q 447 372 444 369 q 460 395 456 383 q 469 419 465 407 q 493 535 488 476 q 501 655 499 594 q 506 775 503 715 q 525 893 510 835 q 542 940 532 917 q 571 978 551 963 q 600 994 583 989 q 632 1000 617 999 q 706 993 667 1000 q 741 982 724 989 q 774 964 758 975 q 794 937 786 953 q 804 904 801 921 q 807 853 808 879 q 801 801 806 826 q 792 753 799 788 q 777 676 786 719 q 758 585 768 633 q 738 494 747 538 q 722 417 729 450 q 710 369 714 383 q 669 227 690 299 q 610 92 649 156 z "},"W":{"ha":1197,"x_min":54,"x_max":1151,"o":"m 396 6 q 344 -11 372 -10 q 289 -4 315 -12 q 246 17 265 3 q 210 47 226 31 q 160 117 181 78 q 128 196 140 156 q 100 310 110 253 q 83 426 90 368 q 64 619 72 524 q 54 813 56 715 q 55 856 54 835 q 58 897 56 876 q 81 949 63 928 q 125 981 99 969 q 183 994 151 992 q 244 988 214 996 q 296 961 274 981 q 333 905 322 939 q 349 836 344 871 q 352 736 354 786 q 347 636 350 686 q 345 536 344 586 q 357 438 346 486 q 369 402 361 422 q 393 379 378 382 q 414 388 404 378 q 429 408 424 399 q 452 469 444 436 q 465 535 460 503 q 478 619 471 576 q 499 701 485 661 q 523 744 507 725 q 558 774 539 764 q 599 784 578 785 q 640 768 621 783 q 668 731 660 753 q 681 685 676 708 q 690 585 689 636 q 703 486 692 535 q 713 444 707 465 q 729 404 718 424 q 747 383 736 393 q 769 376 757 372 q 783 388 776 379 q 794 406 789 396 q 803 428 800 417 q 810 447 807 439 q 816 485 814 467 q 819 522 818 503 q 833 678 824 601 q 851 833 843 754 q 860 892 854 863 q 882 949 867 922 q 903 976 890 964 q 933 994 917 988 q 979 1005 953 1003 q 1032 1003 1006 1007 q 1081 989 1058 999 q 1118 963 1104 979 q 1131 940 1126 951 q 1139 915 1136 928 q 1148 865 1146 890 q 1151 813 1150 839 q 1151 757 1151 785 q 1147 701 1150 729 q 1108 458 1132 579 q 1049 218 1085 336 q 1013 124 1033 171 q 956 44 992 78 q 885 3 924 15 q 806 -5 846 -8 q 730 17 767 -1 q 664 68 693 36 q 622 125 640 94 q 590 189 604 156 q 563 257 575 222 q 539 325 551 292 q 511 208 528 267 q 468 96 494 150 q 438 45 454 69 q 396 6 421 21 z "},"X":{"ha":872,"x_min":29,"x_max":847,"o":"m 253 -21 q 225 -28 242 -28 q 190 -24 208 -28 q 153 -15 171 -21 q 125 -3 136 -10 q 88 22 106 8 q 60 56 71 36 q 49 81 53 67 q 49 108 46 94 q 59 149 50 129 q 79 188 68 168 q 103 222 85 196 q 143 276 122 247 q 183 332 164 306 q 208 367 201 358 q 242 416 226 390 q 275 467 257 442 q 240 512 263 483 q 193 576 218 540 q 142 651 168 611 q 93 727 115 690 q 56 795 71 764 q 38 847 40 826 q 72 954 29 908 q 107 981 86 968 q 150 1003 128 994 q 195 1013 172 1011 q 236 1006 218 1014 q 253 992 246 1000 q 267 974 260 983 q 306 897 290 938 q 344 819 322 857 q 381 757 363 788 q 422 696 400 726 q 453 760 438 728 q 489 822 469 792 q 524 880 506 851 q 563 935 542 908 q 592 967 576 951 q 628 993 608 982 q 682 1003 651 1006 q 729 988 704 1000 q 777 959 754 976 q 817 921 800 942 q 842 879 835 900 q 844 849 847 864 q 835 818 842 833 q 803 763 822 789 q 764 714 783 738 q 711 651 738 682 q 660 588 685 619 q 607 522 632 556 q 557 453 582 488 q 575 431 561 447 q 605 395 589 414 q 635 360 621 376 q 656 338 650 343 q 715 276 685 306 q 772 213 744 246 q 798 167 788 193 q 803 118 808 142 q 784 79 799 99 q 750 44 769 60 q 709 17 731 28 q 668 3 688 6 q 647 2 657 1 q 628 6 638 3 q 591 22 608 11 q 558 46 574 33 q 472 148 506 89 q 406 267 438 207 q 380 206 392 236 q 354 146 368 176 q 337 108 349 133 q 310 57 325 83 q 281 8 296 31 q 253 -21 265 -14 z "},"Y":{"ha":846,"x_min":7,"x_max":839,"o":"m 425 -17 q 394 -17 414 -17 q 353 -14 374 -17 q 313 -7 332 -11 q 286 6 294 -3 q 268 35 274 15 q 265 85 264 49 q 267 160 265 121 q 272 236 269 200 q 276 288 275 272 q 281 385 279 336 q 282 485 282 435 q 245 516 263 500 q 211 550 228 532 q 132 644 169 594 q 63 744 94 693 q 47 769 57 753 q 28 802 38 785 q 13 836 19 819 q 8 863 7 853 q 27 900 11 883 q 54 935 43 917 q 114 988 76 967 q 189 1007 151 1010 q 239 988 217 1004 q 298 910 276 956 q 344 824 319 865 q 360 798 350 813 q 383 771 371 783 q 408 750 394 758 q 433 743 421 742 q 451 751 442 744 q 471 768 461 758 q 488 788 481 778 q 500 806 496 799 q 530 853 513 822 q 568 916 547 885 q 611 971 589 947 q 654 999 633 994 q 695 993 674 1003 q 732 971 717 983 q 769 942 750 956 q 807 914 789 929 q 821 899 814 907 q 832 882 828 892 q 837 849 839 867 q 829 817 835 832 q 801 759 818 786 q 765 704 783 732 q 665 586 721 640 q 551 479 610 532 q 554 313 550 396 q 561 147 558 231 q 561 97 563 122 q 549 49 560 71 q 522 15 540 29 q 485 -6 504 1 q 455 -13 469 -11 q 425 -17 440 -15 z "},"Z":{"ha":861,"x_min":40,"x_max":819,"o":"m 599 17 q 503 11 551 15 q 408 4 456 7 q 312 2 360 1 q 218 14 264 3 q 147 49 178 24 q 99 108 117 74 q 78 181 82 142 q 90 260 75 221 q 153 360 113 314 q 218 424 183 394 q 289 481 253 453 q 358 525 322 504 q 425 574 393 546 q 457 606 442 589 q 482 643 472 622 q 485 683 492 663 q 457 713 478 704 q 419 717 443 718 q 368 709 394 715 q 317 695 342 703 q 278 682 292 688 q 214 660 246 671 q 149 649 182 649 q 113 653 131 649 q 83 671 94 658 q 58 715 65 690 q 49 764 51 740 q 43 827 46 796 q 47 890 40 858 q 60 929 51 910 q 83 963 68 949 q 143 990 103 981 q 230 1001 183 999 q 321 1003 276 1004 q 392 1001 365 1003 q 409 1000 396 1001 q 437 998 422 999 q 465 996 451 997 q 482 994 478 994 q 580 998 531 993 q 678 996 629 1003 q 725 985 701 993 q 765 960 749 976 q 782 934 776 949 q 790 904 788 919 q 782 775 801 839 q 738 678 767 724 q 672 594 708 633 q 631 549 661 582 q 566 477 600 515 q 502 405 532 439 q 463 357 472 371 q 453 341 458 350 q 453 325 449 332 q 468 315 458 317 q 488 315 478 314 q 524 319 507 315 q 561 325 542 322 q 635 331 597 329 q 708 328 672 333 q 750 318 729 325 q 785 296 771 311 q 799 273 794 286 q 808 247 804 260 q 817 193 815 224 q 815 132 819 163 q 800 76 811 101 q 768 38 789 51 q 708 19 743 22 q 653 17 681 17 q 599 17 626 18 z "},"[":{"ha":617,"x_min":76,"x_max":564,"o":"m 432 -54 q 309 -60 371 -61 q 189 -42 247 -60 q 143 -23 165 -35 q 106 8 121 -11 q 81 67 86 33 q 78 133 76 101 q 84 220 81 178 q 90 306 88 263 q 94 457 93 382 q 92 607 94 532 q 85 719 89 664 q 82 832 81 775 q 81 839 82 833 q 81 846 81 844 q 91 933 78 889 q 136 1007 104 978 q 176 1032 153 1024 q 222 1043 199 1040 q 259 1047 232 1044 q 317 1051 286 1049 q 374 1054 347 1053 q 413 1056 401 1056 q 458 1056 435 1056 q 500 1046 481 1056 q 530 1021 518 1038 q 549 986 542 1004 q 559 939 556 965 q 559 886 563 913 q 547 838 556 860 q 519 803 538 815 q 472 786 499 788 q 421 788 446 785 q 390 791 406 790 q 360 785 375 792 q 345 774 351 782 q 336 758 339 767 q 327 733 329 746 q 322 707 325 719 q 317 633 319 686 q 313 521 314 581 q 311 408 311 461 q 313 335 311 356 q 315 313 314 326 q 319 285 317 299 q 326 259 322 271 q 338 243 331 247 q 358 238 343 239 q 389 237 372 236 q 421 239 406 238 q 444 240 436 240 q 478 237 461 239 q 511 228 496 235 q 547 189 538 214 q 560 145 556 172 q 563 90 564 118 q 558 36 563 63 q 542 -6 553 10 q 494 -41 525 -31 q 432 -54 463 -51 z "},"\\":{"ha":629,"x_min":36,"x_max":594,"o":"m 594 42 q 569 -19 592 8 q 511 -46 546 -47 q 451 -19 479 -46 q 401 47 424 8 q 359 126 378 85 q 328 197 340 168 q 210 465 268 332 q 93 732 151 597 q 85 749 90 736 q 73 778 79 763 q 61 806 67 793 q 54 825 56 819 q 42 881 47 853 q 36 939 36 910 q 39 967 36 953 q 49 994 42 982 q 80 1024 60 1014 q 122 1031 100 1033 q 184 999 153 1026 q 243 935 215 972 q 293 860 271 899 q 328 793 315 821 q 385 654 357 724 q 442 514 414 585 q 500 364 472 439 q 554 211 528 289 q 564 176 557 200 q 578 126 571 153 q 590 76 585 100 q 594 42 594 53 z "},"]":{"ha":617,"x_min":53,"x_max":542,"o":"m 400 -50 q 318 -60 360 -57 q 235 -60 276 -62 q 179 -53 207 -57 q 125 -40 151 -50 q 97 -26 110 -35 q 75 -6 83 -18 q 60 33 65 8 q 54 86 56 58 q 56 140 53 114 q 67 182 60 165 q 83 208 74 196 q 107 228 93 221 q 161 240 132 240 q 218 238 190 240 q 251 238 229 238 q 282 244 274 238 q 292 262 288 250 q 299 288 296 274 q 303 315 301 301 q 304 335 304 328 q 306 374 306 347 q 306 435 306 401 q 305 507 306 469 q 303 578 304 544 q 301 639 303 613 q 299 678 300 665 q 295 705 297 689 q 289 737 293 721 q 278 766 285 753 q 261 783 271 779 q 235 789 250 789 q 172 786 204 790 q 111 794 140 782 q 84 817 96 801 q 65 850 72 833 q 56 900 58 872 q 60 955 54 928 q 77 1005 65 982 q 108 1040 89 1028 q 156 1056 129 1054 q 207 1056 182 1057 q 244 1054 217 1056 q 302 1051 272 1053 q 359 1047 332 1050 q 396 1043 386 1044 q 433 1035 414 1039 q 467 1019 451 1031 q 497 992 483 1008 q 518 956 510 975 q 535 897 529 928 q 536 836 542 865 q 535 834 536 835 q 535 832 535 833 q 531 684 536 757 q 524 536 526 611 q 526 352 521 444 q 538 168 531 260 q 540 106 540 138 q 532 46 540 75 q 496 -8 521 13 q 451 -35 476 -25 q 400 -50 426 -44 z "},"^":{"ha":521,"x_min":36,"x_max":483,"o":"m 478 676 q 446 647 469 653 q 399 650 422 640 q 367 669 382 657 q 340 693 353 681 q 301 745 318 718 q 264 800 283 772 q 213 735 240 767 q 154 679 186 703 q 98 653 131 660 q 46 669 65 646 q 37 694 38 679 q 40 724 36 708 q 49 754 43 739 q 63 781 56 769 q 83 812 68 789 q 116 861 99 835 q 149 910 133 888 q 171 940 164 932 q 199 973 185 957 q 232 1000 214 989 q 252 1009 242 1006 q 274 1013 263 1013 q 315 996 296 1011 q 376 933 351 969 q 422 858 400 896 q 455 799 439 829 q 478 735 471 768 q 482 705 481 719 q 478 676 483 690 z "},"_":{"ha":711,"x_min":-69,"x_max":819,"o":"m 700 -200 q 585 -212 643 -211 q 469 -212 528 -214 q 431 -212 458 -212 q 369 -212 404 -212 q 296 -210 335 -211 q 222 -209 257 -210 q 160 -208 186 -208 q 122 -206 133 -207 q 74 -201 99 -204 q 26 -194 50 -199 q -12 -181 7 -189 q -47 -158 -32 -174 q -68 -110 -65 -137 q -66 -87 -69 -99 q -58 -64 -62 -75 q -33 -30 -49 -44 q 3 -6 -17 -15 q 55 13 28 7 q 110 21 82 18 q 195 28 153 26 q 282 31 238 29 q 444 29 364 31 q 607 17 525 28 q 661 8 635 14 q 714 -6 688 3 q 741 -15 728 -10 q 767 -29 754 -21 q 792 -48 779 -37 q 810 -74 804 -58 q 813 -118 819 -97 q 790 -156 807 -139 q 749 -184 774 -172 q 700 -200 725 -196 z "},"a":{"ha":903,"x_min":19,"x_max":876,"o":"m 693 -39 q 655 -39 674 -40 q 619 -31 636 -37 q 563 19 579 -15 q 542 77 547 47 q 533 138 536 107 q 519 242 526 190 q 496 344 511 294 q 485 377 492 361 q 469 407 479 393 q 461 419 467 413 q 450 425 456 425 q 438 418 444 425 q 428 407 431 411 q 408 365 414 388 q 399 318 401 342 q 386 238 392 278 q 374 157 381 197 q 360 92 367 125 q 338 29 353 60 q 322 7 331 18 q 303 -11 314 -4 q 282 -19 293 -17 q 260 -24 271 -21 q 205 -26 232 -26 q 150 -22 178 -25 q 104 -15 126 -19 q 61 1 82 -10 q 44 13 53 6 q 33 29 36 19 q 27 117 19 61 q 52 235 35 174 q 90 353 69 296 q 122 442 110 410 q 179 614 153 528 q 238 786 206 700 q 283 886 257 838 q 350 969 310 935 q 398 999 371 989 q 453 1013 425 1008 q 533 1012 492 1018 q 607 986 574 1006 q 658 935 638 967 q 693 869 679 903 q 728 753 717 813 q 756 633 740 693 q 806 424 781 528 q 854 213 832 319 q 867 152 861 182 q 875 90 872 122 q 873 56 876 74 q 860 25 869 39 q 834 0 850 10 q 801 -17 818 -10 q 749 -32 776 -28 q 693 -39 721 -36 m 393 581 q 396 560 392 569 q 411 551 400 550 q 458 553 435 554 q 506 554 482 553 q 516 563 514 554 q 519 579 518 571 q 518 620 521 600 q 511 660 515 640 q 486 728 504 697 q 472 743 478 739 q 451 741 461 751 q 433 718 440 731 q 406 651 417 686 q 393 581 396 617 m 47 196 l 46 193 q 49 194 47 193 l 47 196 z "},"b":{"ha":886,"x_min":51,"x_max":854,"o":"m 582 -12 q 459 -41 522 -32 q 333 -47 396 -50 q 260 -36 297 -44 q 193 -7 224 -28 q 152 33 169 10 q 124 83 135 57 q 104 149 111 115 q 90 215 97 182 q 61 429 71 322 q 54 644 51 536 q 60 739 56 692 q 78 832 65 786 q 147 958 97 904 q 205 1007 174 986 q 272 1040 236 1028 q 380 1059 324 1058 q 489 1050 436 1060 q 597 1019 544 1042 q 694 963 650 997 q 738 919 718 943 q 768 868 757 896 q 782 826 778 849 q 788 782 786 804 q 776 723 788 751 q 750 667 765 694 q 699 599 729 631 q 638 540 669 568 q 628 535 633 538 q 619 528 624 532 q 638 524 622 526 q 656 521 653 521 q 735 493 696 513 q 801 444 774 474 q 842 374 829 415 q 853 294 854 336 q 840 213 851 251 q 803 138 828 172 q 746 76 778 104 q 668 24 710 46 q 582 -12 626 3 m 356 638 q 376 630 364 631 q 400 629 389 629 q 458 642 429 632 q 506 667 486 651 q 534 703 526 682 q 529 751 542 725 q 489 801 515 783 q 444 819 469 814 q 396 825 419 825 q 371 820 383 824 q 351 806 358 817 q 338 772 340 790 q 333 733 336 753 q 333 710 332 724 q 336 682 333 696 q 344 656 339 668 q 356 638 349 643 m 385 188 q 417 179 399 179 q 455 184 436 179 q 491 199 474 189 q 521 219 508 208 q 553 278 549 244 q 542 332 556 307 q 494 369 525 358 q 468 378 485 374 q 434 386 451 383 q 400 390 417 389 q 374 386 383 390 q 356 369 361 379 q 345 338 350 360 q 343 306 340 317 q 349 267 347 286 q 357 229 351 249 q 367 206 361 218 q 385 188 374 194 z "},"c":{"ha":825,"x_min":39,"x_max":790,"o":"m 543 14 q 459 -4 503 -1 q 372 0 415 -7 q 288 25 329 7 q 214 71 247 43 q 133 158 167 107 q 79 267 99 210 q 46 416 53 339 q 44 569 39 493 q 77 742 50 657 q 156 899 104 828 q 245 986 192 949 q 358 1039 299 1024 q 442 1051 399 1050 q 525 1044 485 1051 q 644 997 593 1036 q 653 994 650 994 q 672 979 660 990 q 696 954 683 968 q 719 927 708 940 q 735 907 731 914 q 767 844 754 879 q 772 778 779 810 q 749 723 767 750 q 705 674 731 696 q 649 638 679 653 q 592 619 619 622 q 553 622 572 617 q 519 638 535 626 q 474 690 492 658 q 426 739 456 721 q 390 749 410 749 q 354 738 371 749 q 324 708 336 726 q 304 671 311 690 q 300 662 301 667 q 296 654 299 657 q 295 644 297 651 q 292 635 293 638 q 282 577 285 607 q 279 518 279 547 q 282 456 279 486 q 294 396 285 425 q 319 344 303 369 q 363 311 336 319 q 410 312 386 304 q 454 335 435 319 q 518 396 490 361 q 582 454 546 431 q 646 474 613 475 q 707 455 679 472 q 756 408 735 438 q 783 340 776 378 q 780 270 790 306 q 753 203 769 235 q 665 90 719 140 q 543 14 610 39 z "},"d":{"ha":864,"x_min":58,"x_max":828,"o":"m 436 -10 q 381 -17 418 -14 q 303 -22 343 -21 q 226 -22 263 -24 q 171 -15 189 -21 q 108 36 131 -3 q 88 94 94 64 q 78 154 82 124 q 69 273 71 214 q 68 392 68 332 q 63 590 68 492 q 71 788 58 689 q 87 868 78 828 q 115 944 96 908 q 144 985 126 967 q 183 1014 161 1003 q 256 1035 217 1031 q 332 1039 294 1039 q 449 1028 390 1039 q 560 993 507 1017 q 646 942 604 972 q 717 872 688 913 q 779 757 756 819 q 814 629 803 694 q 825 473 828 553 q 796 318 822 393 q 721 172 769 242 q 603 60 672 103 q 522 19 564 36 q 436 -10 481 1 m 389 329 q 413 326 399 325 q 441 332 426 326 q 468 345 456 338 q 489 361 481 353 q 507 388 500 372 q 519 418 514 403 q 533 499 532 457 q 525 582 533 542 q 463 694 510 647 q 441 712 453 704 q 417 724 429 719 q 391 726 404 728 q 368 715 378 725 q 350 679 356 704 q 342 626 344 654 q 341 570 340 597 q 342 526 342 543 q 344 465 343 496 q 353 406 346 435 q 358 385 354 397 q 365 363 361 374 q 376 342 369 351 q 389 329 382 332 z "},"e":{"ha":800,"x_min":61,"x_max":767,"o":"m 644 3 q 470 -22 560 -17 q 296 -6 381 -26 q 198 28 246 6 q 114 89 150 51 q 83 133 94 108 q 68 186 72 158 q 65 218 65 201 q 64 251 65 235 q 66 443 61 347 q 75 635 71 539 q 76 651 75 639 q 76 676 76 663 q 77 701 76 689 q 78 718 78 714 q 76 760 78 729 q 74 826 75 792 q 73 892 74 861 q 74 933 72 922 q 80 959 76 947 q 90 982 83 971 q 126 1004 104 1000 q 160 1007 143 1007 q 194 1006 178 1007 q 282 1008 239 1004 q 369 1011 325 1011 q 431 1012 386 1011 q 524 1012 475 1013 q 617 1010 574 1011 q 678 1004 661 1008 q 704 996 692 1001 q 725 979 717 990 q 754 888 757 939 q 735 829 754 856 q 708 802 724 814 q 674 783 692 790 q 617 769 646 772 q 558 767 588 767 q 490 767 524 767 q 422 764 457 767 q 406 763 417 764 q 383 760 394 761 q 360 756 371 758 q 346 749 350 753 q 338 736 342 744 q 333 717 335 728 q 330 697 331 707 q 329 681 329 686 q 329 656 328 672 q 338 632 331 639 q 357 624 343 626 q 387 621 371 621 q 418 622 403 621 q 442 622 433 622 q 509 627 475 625 q 578 626 543 629 q 613 623 590 626 q 643 610 636 619 q 651 588 647 603 q 656 557 654 574 q 659 525 658 540 q 658 501 660 510 q 640 454 654 474 q 606 424 626 436 q 564 407 586 413 q 499 399 532 399 q 432 396 465 399 q 394 393 419 396 q 361 381 369 390 q 355 367 357 376 q 351 346 353 357 q 348 324 349 335 q 347 308 347 314 q 351 280 349 299 q 361 254 353 261 q 424 240 379 239 q 522 245 469 240 q 622 256 574 250 q 693 258 669 263 q 731 243 713 256 q 752 210 744 231 q 763 168 760 190 q 764 123 767 146 q 754 83 761 100 q 741 60 749 71 q 724 40 733 50 q 686 17 707 26 q 644 3 665 8 z "},"f":{"ha":778,"x_min":63,"x_max":756,"o":"m 389 50 q 358 14 381 28 q 306 -8 335 0 q 247 -19 278 -17 q 193 -21 217 -22 q 162 -18 178 -21 q 135 -4 146 -15 q 113 37 122 8 q 98 99 104 65 q 88 163 92 132 q 82 211 83 194 q 65 493 67 353 q 69 776 63 633 q 71 835 71 806 q 78 893 71 865 q 86 920 81 907 q 101 944 92 933 q 131 962 110 953 q 175 978 151 971 q 221 992 199 986 q 254 1000 243 997 q 372 1019 313 1014 q 490 1025 431 1025 q 533 1024 504 1025 q 595 1021 563 1024 q 657 1014 628 1018 q 699 1003 686 1010 q 732 970 719 992 q 750 923 744 949 q 754 869 756 897 q 747 819 753 842 q 707 759 736 782 q 639 736 678 736 q 569 738 611 736 q 483 739 526 740 q 402 728 439 738 q 349 699 365 719 q 338 658 338 685 q 346 617 338 632 q 360 606 350 610 q 381 601 369 603 q 404 600 393 600 q 424 600 415 600 q 489 604 456 601 q 554 606 522 607 q 585 601 569 604 q 615 592 600 599 q 642 569 631 585 q 654 534 651 553 q 658 496 657 515 q 658 465 658 483 q 653 426 657 446 q 644 390 650 407 q 628 365 638 374 q 591 349 613 353 q 550 346 569 346 q 515 347 538 346 q 466 350 492 349 q 418 350 440 351 q 386 342 396 349 q 375 324 378 335 q 371 301 372 313 q 375 210 368 256 q 390 119 382 164 q 394 85 393 103 q 389 50 396 67 z "},"g":{"ha":944,"x_min":32,"x_max":910,"o":"m 660 4 q 548 -23 607 -19 q 432 -15 489 -26 q 304 23 367 -4 q 193 94 242 50 q 132 166 158 126 q 89 250 106 206 q 40 468 49 353 q 65 689 32 583 q 118 806 85 750 q 197 904 151 861 q 311 986 247 953 q 444 1026 375 1019 q 452 1028 446 1026 q 460 1029 458 1029 q 539 1035 500 1036 q 618 1029 578 1033 q 688 1017 653 1024 q 754 997 722 1011 q 799 963 783 986 q 813 919 811 944 q 809 869 814 894 q 794 819 804 843 q 771 778 783 794 q 719 732 751 747 q 649 725 686 717 q 581 747 614 733 q 513 768 549 761 q 456 771 485 774 q 403 756 428 768 q 357 719 376 743 q 324 669 338 696 q 294 574 301 625 q 290 474 288 524 q 301 399 293 436 q 324 328 308 361 q 342 292 332 308 q 368 261 353 275 q 503 203 424 206 q 583 215 543 201 q 656 251 624 228 q 680 272 667 260 q 703 299 693 285 q 717 329 713 314 q 718 358 722 344 q 687 383 711 381 q 639 378 663 385 q 585 363 611 371 q 532 350 560 356 q 489 348 511 347 q 449 360 467 349 q 420 390 432 369 q 402 435 408 411 q 395 485 396 460 q 399 529 394 510 q 416 568 403 550 q 449 597 429 586 q 535 635 489 622 q 626 651 581 647 q 638 653 629 653 q 649 653 646 653 q 720 651 685 654 q 789 636 756 647 q 876 567 844 617 q 903 502 896 538 q 910 432 910 467 q 886 280 908 356 q 819 142 864 204 q 748 61 788 99 q 660 4 708 24 z "},"h":{"ha":986,"x_min":65,"x_max":922,"o":"m 258 -26 q 199 -29 229 -29 q 140 -19 168 -29 q 96 8 113 -12 q 83 32 86 19 q 76 58 79 44 q 76 88 76 67 q 76 135 76 110 q 76 181 76 160 q 76 211 76 203 q 76 265 76 226 q 74 353 75 303 q 73 460 74 404 q 72 566 72 515 q 72 655 72 617 q 71 708 71 693 q 67 801 69 754 q 76 893 65 847 q 91 935 81 914 q 121 968 101 956 q 158 987 138 981 q 201 996 179 993 q 289 997 242 1001 q 326 993 308 996 q 361 983 344 990 q 381 973 372 979 q 396 957 390 967 q 410 924 407 942 q 415 886 414 906 q 415 767 421 826 q 407 646 408 707 q 408 615 407 631 q 410 583 408 599 q 501 585 456 586 q 592 578 547 583 q 591 611 592 586 q 590 665 590 636 q 590 719 590 694 q 590 753 590 744 q 594 844 592 799 q 610 935 597 890 q 626 971 614 954 q 654 999 638 988 q 710 1016 679 1013 q 769 1018 740 1019 q 824 1014 796 1018 q 872 994 851 1010 q 897 967 888 983 q 911 935 907 951 q 921 853 922 894 q 917 769 919 811 q 907 513 910 640 q 907 257 904 386 q 910 184 908 221 q 911 110 913 147 q 910 78 911 94 q 903 47 908 63 q 871 5 894 21 q 817 -19 847 -11 q 754 -27 788 -26 q 693 -24 721 -28 q 651 -15 672 -21 q 614 7 629 -8 q 596 39 601 19 q 589 76 590 58 q 588 129 588 89 q 589 214 589 169 q 590 298 589 258 q 589 350 590 338 q 493 349 540 350 q 399 342 446 347 q 397 245 396 293 q 396 149 399 197 q 390 94 393 121 q 376 43 388 68 q 360 17 369 29 q 336 -4 350 4 q 298 -19 318 -15 q 258 -26 278 -24 z "},"i":{"ha":474,"x_min":58,"x_max":411,"o":"m 239 -6 q 183 -8 211 -10 q 129 6 154 -6 q 103 23 115 13 q 85 47 92 33 q 72 93 74 68 q 69 142 69 118 q 72 184 69 154 q 76 253 74 214 q 80 335 78 292 q 84 418 82 379 q 87 487 86 457 q 88 529 88 517 q 83 620 85 575 q 79 711 82 665 q 71 797 76 754 q 63 882 65 839 q 65 946 58 913 q 94 991 72 972 q 146 1022 117 1010 q 208 1038 175 1033 q 268 1043 240 1043 q 312 1038 290 1042 q 351 1024 333 1035 q 386 975 374 1008 q 404 901 399 942 q 410 821 410 861 q 411 754 411 781 q 409 577 410 665 q 403 400 408 489 q 392 274 399 336 q 374 149 386 211 q 358 86 368 117 q 324 32 347 56 q 285 7 307 17 q 239 -6 263 -3 z "},"j":{"ha":846,"x_min":22,"x_max":814,"o":"m 508 -14 q 423 -29 468 -28 q 336 -19 378 -31 q 242 17 288 -7 q 160 74 197 40 q 93 149 122 107 q 47 236 64 190 q 27 320 32 276 q 36 404 22 364 q 66 458 46 433 q 114 497 86 483 q 157 510 132 507 q 208 512 182 514 q 256 501 233 510 q 293 476 278 492 q 306 456 301 468 q 314 433 311 444 q 321 386 319 410 q 328 339 322 363 q 340 302 332 319 q 361 271 349 285 q 381 256 368 263 q 404 253 393 250 q 431 270 418 257 q 452 301 443 283 q 468 337 461 318 q 478 371 475 356 q 489 478 489 424 q 485 585 489 532 q 478 682 482 633 q 463 779 474 731 q 397 765 429 774 q 331 750 364 756 q 278 748 306 746 q 228 764 251 750 q 190 799 206 776 q 165 849 174 822 q 154 905 156 876 q 161 958 153 933 q 192 1010 171 990 q 221 1028 204 1021 q 254 1039 238 1035 q 342 1049 294 1049 q 438 1050 390 1051 q 533 1047 485 1049 q 615 1042 574 1044 q 699 1035 657 1040 q 739 1027 718 1032 q 776 1010 760 1022 q 798 983 790 999 q 810 950 806 967 q 813 906 814 929 q 804 864 811 883 q 777 820 797 840 q 733 794 757 800 q 753 623 746 708 q 757 450 761 538 q 719 228 753 336 q 688 151 707 189 q 643 82 669 114 q 581 25 615 50 q 508 -14 547 0 z "},"k":{"ha":958,"x_min":64,"x_max":928,"o":"m 244 -28 q 140 -14 189 -31 q 112 -1 125 -8 q 90 19 99 7 q 79 51 81 33 q 78 88 78 69 q 78 119 78 96 q 80 170 79 143 q 81 221 81 197 q 82 253 82 244 q 82 300 82 267 q 81 376 82 333 q 78 467 79 419 q 76 558 78 515 q 74 635 75 601 q 72 682 72 668 q 68 748 71 706 q 65 835 65 790 q 68 918 64 879 q 88 975 72 957 q 128 1003 101 993 q 185 1018 154 1014 q 248 1022 217 1022 q 300 1018 279 1022 q 324 1011 311 1015 q 343 999 336 1007 q 363 941 357 981 q 369 856 368 901 q 369 769 371 811 q 368 704 368 726 q 443 782 404 744 q 522 856 482 819 q 606 923 563 892 q 699 972 649 954 q 734 983 715 979 q 772 985 753 988 q 819 964 799 981 q 851 928 839 949 q 875 883 864 907 q 885 856 878 876 q 893 828 892 835 q 894 806 894 817 q 888 783 893 794 q 868 755 881 768 q 840 731 856 742 q 757 674 800 700 q 671 621 714 647 q 587 567 628 594 q 504 514 546 540 q 504 513 501 513 q 510 511 507 514 q 593 452 550 479 q 681 399 636 425 q 769 347 725 374 q 854 290 813 321 q 888 263 872 278 q 915 228 904 247 q 928 181 928 207 q 917 135 928 158 q 890 92 907 113 q 853 56 874 71 q 811 33 832 40 q 744 31 778 22 q 676 58 708 39 q 615 99 644 78 q 485 201 547 147 q 361 313 422 254 q 368 230 365 271 q 372 149 371 189 q 372 94 374 121 q 363 42 371 67 q 350 15 358 28 q 331 -4 342 3 q 290 -21 311 -15 q 244 -28 268 -26 z "},"l":{"ha":729,"x_min":60,"x_max":710,"o":"m 599 -7 q 535 -7 567 -10 q 471 -1 503 -4 q 439 -3 456 0 q 407 -7 422 -7 q 364 -7 394 -7 q 299 -6 333 -7 q 233 -3 264 -4 q 192 1 203 -1 q 144 28 168 7 q 119 60 129 42 q 103 99 110 79 q 78 186 88 142 q 67 276 69 231 q 63 460 60 368 q 71 646 65 553 q 73 692 71 657 q 77 766 75 726 q 81 840 79 806 q 83 886 82 875 q 87 917 85 897 q 92 956 89 936 q 101 994 96 976 q 114 1019 106 1013 q 132 1028 119 1025 q 158 1032 144 1031 q 184 1033 171 1033 q 206 1033 197 1033 q 277 1031 242 1033 q 349 1021 313 1029 q 381 1008 365 1017 q 406 983 396 999 q 417 954 414 969 q 421 924 419 939 q 422 867 424 896 q 415 808 419 838 q 389 624 404 715 q 364 439 374 532 q 358 359 361 399 q 363 281 356 319 q 365 269 364 275 q 371 260 367 264 q 383 255 376 256 q 394 256 389 254 q 431 260 414 257 q 467 267 449 264 q 528 276 497 272 q 590 281 558 279 q 629 279 610 282 q 665 267 649 276 q 691 240 681 257 q 704 207 701 224 q 709 156 708 185 q 706 98 710 126 q 691 46 701 69 q 663 10 681 22 q 632 -3 649 0 q 599 -7 615 -6 z "},"m":{"ha":1201,"x_min":65,"x_max":1138,"o":"m 1107 0 q 1058 -26 1088 -21 q 1001 -32 1029 -32 q 931 -25 967 -32 q 872 7 896 -18 q 845 64 850 31 q 840 129 840 97 q 848 330 840 229 q 856 531 856 431 q 806 417 832 474 q 739 314 779 361 q 674 265 711 282 q 598 246 638 247 q 522 259 558 244 q 457 307 485 274 q 428 349 440 326 q 404 394 415 371 q 376 465 389 429 q 347 535 363 500 q 356 327 349 431 q 363 119 364 224 q 357 65 361 93 q 338 17 353 38 q 297 -13 322 -3 q 243 -27 272 -24 q 185 -28 214 -31 q 133 -17 156 -25 q 113 -7 122 -12 q 94 7 103 -1 q 71 56 75 26 q 65 114 67 86 q 66 154 65 126 q 69 219 67 182 q 74 297 71 257 q 78 375 76 338 q 82 440 81 413 q 85 481 83 468 q 85 496 85 485 q 85 519 85 507 q 85 543 85 532 q 85 558 85 554 q 73 672 78 615 q 68 785 68 728 q 72 853 69 819 q 86 918 75 886 q 106 961 93 940 q 139 994 119 982 q 197 1015 165 1011 q 258 1021 228 1019 q 314 1022 286 1022 q 369 1015 342 1022 q 404 1003 388 1011 q 436 985 421 996 q 474 933 456 968 q 510 852 493 897 q 541 756 526 807 q 567 658 556 706 q 588 569 579 610 q 603 503 597 528 q 634 651 618 578 q 674 797 650 725 q 695 855 685 826 q 719 911 706 883 q 742 951 731 932 q 772 983 754 969 q 810 1005 790 997 q 851 1015 831 1013 q 917 1021 883 1022 q 985 1015 951 1019 q 1024 1008 1004 1013 q 1063 992 1044 1003 q 1090 969 1078 982 q 1110 942 1103 957 q 1133 860 1129 903 q 1136 774 1138 817 q 1130 668 1135 721 q 1121 563 1125 615 q 1119 513 1119 549 q 1120 438 1119 478 q 1122 363 1121 399 q 1125 314 1124 328 q 1132 242 1128 288 q 1137 151 1136 197 q 1131 63 1138 104 q 1107 0 1125 21 z "},"n":{"ha":1035,"x_min":65,"x_max":978,"o":"m 260 -3 q 214 -15 239 -12 q 165 -13 189 -18 q 120 3 140 -8 q 89 36 100 15 q 75 70 79 51 q 69 107 71 89 q 69 155 68 121 q 72 233 69 189 q 76 326 74 276 q 81 419 79 375 q 85 497 83 463 q 86 546 86 531 q 78 705 86 625 q 65 864 69 785 q 66 897 65 881 q 69 928 67 913 q 83 971 74 950 q 108 1006 92 992 q 161 1031 129 1024 q 226 1038 193 1039 q 292 1027 260 1036 q 347 1003 324 1018 q 399 953 378 983 q 435 892 419 924 q 467 810 454 851 q 496 726 481 768 q 535 622 515 674 q 575 517 554 569 q 587 487 579 506 q 604 449 594 468 q 624 416 614 431 q 646 397 635 401 q 664 403 657 393 q 674 424 671 413 q 682 494 683 458 q 678 565 681 529 q 671 648 675 607 q 664 731 667 689 q 662 794 663 754 q 664 875 661 833 q 675 953 667 917 q 700 1006 683 989 q 724 1022 711 1017 q 753 1031 738 1028 q 803 1036 776 1036 q 853 1024 831 1036 q 885 1013 869 1024 q 914 985 901 1001 q 936 949 926 968 q 950 914 946 931 q 975 742 972 829 q 976 567 978 654 q 971 394 976 479 q 947 224 965 308 q 932 160 940 192 q 908 99 924 129 q 886 62 899 79 q 857 32 874 44 q 799 5 831 13 q 735 -3 767 -3 q 674 5 704 -3 q 618 29 644 13 q 572 69 592 44 q 538 121 553 93 q 500 190 517 154 q 469 261 483 225 q 443 330 461 282 q 403 430 425 378 q 360 528 382 482 q 325 590 339 574 q 318 542 318 565 q 317 502 317 531 q 319 436 318 474 q 322 357 321 399 q 324 278 324 315 q 326 211 325 240 q 326 171 326 182 q 322 103 325 138 q 304 39 319 69 q 285 15 297 25 q 260 -3 274 4 z "},"o":{"ha":878,"x_min":40,"x_max":842,"o":"m 585 40 q 456 11 524 15 q 325 26 389 7 q 215 82 264 44 q 167 128 189 101 q 126 182 144 154 q 68 327 86 249 q 44 483 50 406 q 48 637 40 560 q 83 785 56 714 q 126 867 100 828 q 186 935 151 906 q 246 974 214 958 q 313 997 278 989 q 415 1013 363 1011 q 517 1008 467 1015 q 581 997 549 1004 q 642 975 613 989 q 717 917 685 954 q 772 836 750 879 q 813 725 799 783 q 833 607 828 667 q 830 420 842 515 q 781 240 818 325 q 743 170 765 204 q 692 108 721 136 q 585 40 644 63 m 403 306 q 458 283 426 283 q 514 304 490 283 q 547 358 535 322 q 565 437 560 394 q 572 520 571 479 q 569 589 572 561 q 554 660 567 625 q 518 722 542 696 q 489 746 506 736 q 454 754 472 756 q 417 738 433 753 q 388 702 400 724 q 367 657 375 681 q 356 613 360 633 q 344 514 344 564 q 353 415 344 464 q 369 356 358 386 q 403 306 381 325 z "},"p":{"ha":782,"x_min":42,"x_max":756,"o":"m 288 -29 q 247 -31 271 -31 q 197 -27 222 -31 q 151 -16 172 -24 q 119 4 129 -8 q 104 43 104 22 q 105 60 103 46 q 107 76 107 74 q 110 120 110 99 q 108 164 110 142 q 101 338 107 251 q 89 511 96 424 q 74 667 82 589 q 49 821 65 744 q 53 890 42 854 q 85 954 64 926 q 130 994 103 978 q 186 1017 157 1010 q 268 1031 226 1028 q 351 1033 310 1035 q 439 1028 396 1032 q 524 1014 482 1024 q 596 987 561 1006 q 657 940 631 968 q 715 854 693 903 q 746 754 738 806 q 747 630 756 693 q 714 510 739 567 q 617 382 682 433 q 496 328 563 340 q 429 325 464 321 q 363 339 394 329 q 372 297 365 328 q 385 233 378 267 q 397 167 392 199 q 403 125 401 136 q 404 65 407 96 q 383 10 401 33 q 340 -18 368 -10 q 288 -29 313 -26 m 376 568 q 433 580 404 561 q 475 624 463 599 q 485 683 488 650 q 467 742 482 715 q 438 776 456 761 q 399 794 419 792 q 376 796 388 797 q 357 788 365 794 q 344 769 349 782 q 338 740 340 756 q 336 710 336 725 q 336 685 336 694 q 338 662 336 676 q 341 631 339 647 q 347 601 343 615 q 356 581 350 586 q 376 568 364 569 z "},"q":{"ha":869,"x_min":33,"x_max":829,"o":"m 814 -7 q 781 -50 800 -31 q 738 -81 761 -69 q 691 -94 715 -93 q 643 -82 667 -94 q 618 -62 629 -75 q 599 -36 607 -50 q 568 21 582 -8 q 539 79 554 50 q 411 61 475 57 q 259 106 332 67 q 138 210 186 144 q 115 240 126 225 q 94 272 104 256 q 51 388 64 326 q 36 513 39 450 q 57 667 33 590 q 125 806 81 743 q 181 869 149 840 q 251 918 214 899 q 318 941 283 933 q 389 951 353 949 q 526 942 461 956 q 608 915 568 933 q 681 869 649 897 q 734 815 711 846 q 774 750 757 785 q 815 621 804 690 q 819 483 826 551 q 783 333 813 407 q 707 200 754 260 q 742 158 722 178 q 779 119 761 139 q 808 86 794 104 q 826 46 822 68 q 825 19 829 33 q 814 -7 821 4 m 321 425 q 386 389 344 397 q 463 392 428 381 q 513 426 490 403 q 547 478 536 450 q 563 551 561 513 q 554 626 565 590 q 542 651 550 640 q 525 674 535 663 q 477 706 504 696 q 422 715 450 717 q 367 701 393 714 q 321 665 340 688 q 290 610 300 642 q 279 544 279 578 q 290 480 279 511 q 321 425 300 449 z "},"r":{"ha":874,"x_min":67,"x_max":856,"o":"m 281 -17 q 240 -20 265 -19 q 188 -19 214 -21 q 138 -12 161 -18 q 101 4 114 -7 q 84 33 88 15 q 81 69 81 51 q 79 106 79 79 q 79 165 79 132 q 79 237 79 199 q 78 308 79 275 q 78 368 78 342 q 78 404 78 394 q 70 544 74 475 q 67 685 67 614 q 67 776 67 731 q 75 867 68 822 q 86 928 76 896 q 150 1011 101 982 q 189 1026 168 1022 q 229 1033 210 1031 q 347 1042 288 1042 q 465 1032 407 1042 q 560 1012 513 1025 q 647 974 607 999 q 690 942 671 960 q 725 900 710 924 q 768 710 781 811 q 741 627 761 667 q 692 556 721 588 q 605 485 653 515 q 504 433 557 456 q 606 351 551 388 q 718 285 660 314 q 763 263 740 274 q 804 238 785 253 q 826 219 815 229 q 843 196 836 208 q 849 139 856 169 q 834 101 846 122 q 807 62 822 81 q 774 28 792 43 q 739 10 756 14 q 654 11 697 -3 q 607 32 629 18 q 565 63 585 46 q 447 190 499 119 q 340 331 396 261 q 364 215 354 272 q 381 100 374 158 q 380 58 382 81 q 365 21 378 36 q 327 -5 350 3 q 281 -17 304 -12 m 336 576 q 358 573 347 571 q 381 578 369 575 q 440 602 413 585 q 488 644 468 619 q 506 696 507 669 q 488 745 504 722 q 445 785 472 768 q 388 811 418 803 q 364 815 376 814 q 340 813 351 817 q 322 797 329 808 q 310 760 314 785 q 307 708 307 735 q 309 656 307 681 q 315 615 311 631 q 322 593 318 604 q 336 576 326 582 z "},"s":{"ha":807,"x_min":40,"x_max":764,"o":"m 494 -14 q 371 -25 433 -25 q 247 -10 308 -25 q 197 6 221 -3 q 149 28 172 14 q 78 100 103 51 q 63 150 67 124 q 63 203 60 176 q 71 244 64 221 q 88 290 78 268 q 113 328 99 311 q 144 350 126 344 q 185 351 163 356 q 265 332 225 346 q 346 308 306 318 q 388 302 363 304 q 438 301 413 300 q 485 308 463 303 q 518 326 507 314 q 532 354 529 338 q 532 386 535 371 q 502 442 525 417 q 451 478 479 467 q 396 491 424 488 q 339 496 368 494 q 281 498 310 497 q 224 501 253 499 q 171 513 197 504 q 125 540 144 522 q 101 564 113 551 q 81 592 89 576 q 59 635 68 611 q 47 682 50 658 q 50 782 40 731 q 85 876 60 833 q 134 940 104 911 q 200 986 164 968 q 273 1013 235 1006 q 351 1024 311 1021 q 477 1032 414 1029 q 603 1029 540 1035 q 649 1022 626 1026 q 692 1003 672 1017 q 724 965 711 989 q 742 913 736 942 q 748 857 749 885 q 740 807 747 829 q 722 767 733 786 q 692 736 710 747 q 649 722 672 725 q 603 718 625 718 q 531 724 567 721 q 458 726 494 728 q 430 724 446 726 q 399 718 414 722 q 374 707 385 714 q 358 689 363 700 q 356 658 354 674 q 367 631 357 642 q 390 616 376 619 q 418 611 404 613 q 483 604 450 607 q 549 594 517 601 q 610 574 581 588 q 664 536 640 560 q 728 441 704 496 q 760 329 753 386 q 756 240 764 285 q 732 154 747 196 q 694 84 719 117 q 636 31 669 51 q 567 2 604 11 q 494 -14 531 -7 z "},"t":{"ha":818,"x_min":24,"x_max":796,"o":"m 526 39 q 503 15 519 25 q 465 -2 486 4 q 423 -11 444 -8 q 386 -14 401 -14 q 346 -10 369 -14 q 300 0 322 -7 q 260 17 278 7 q 235 43 242 28 q 225 78 226 60 q 222 115 224 96 q 222 267 219 192 q 228 418 224 342 q 235 543 231 481 q 246 668 239 606 q 188 656 218 661 q 129 651 158 650 q 92 658 110 653 q 58 674 74 663 q 35 711 43 686 q 26 765 28 736 q 26 822 24 793 q 33 869 29 850 q 65 933 40 903 q 121 978 89 963 q 231 1006 172 1003 q 346 1010 289 1008 q 406 1012 376 1010 q 467 1014 436 1014 q 582 1010 524 1014 q 656 1001 618 1007 q 726 979 693 994 q 772 946 757 968 q 787 913 783 931 q 793 879 790 896 q 794 818 796 849 q 788 758 793 788 q 778 725 785 742 q 761 694 772 708 q 715 663 744 671 q 680 656 699 657 q 642 656 661 656 q 624 656 638 656 q 594 658 610 657 q 565 659 579 658 q 547 660 551 660 q 545 633 546 646 q 544 606 544 619 q 540 597 544 599 q 541 592 539 596 q 543 586 543 589 q 536 413 539 499 q 533 240 533 328 q 535 198 533 226 q 536 138 536 169 q 534 79 536 107 q 526 39 532 51 z "},"u":{"ha":868,"x_min":47,"x_max":825,"o":"m 489 19 q 408 19 449 15 q 328 32 368 22 q 249 56 288 42 q 178 96 210 71 q 118 158 143 122 q 79 235 93 194 q 51 369 56 300 q 50 508 47 439 q 53 551 50 522 q 60 617 56 581 q 69 694 64 654 q 78 772 74 735 q 88 837 83 808 q 96 879 92 865 q 104 909 99 894 q 121 935 110 924 q 165 956 138 953 q 203 958 179 957 q 251 956 226 958 q 299 949 276 954 q 332 936 321 944 q 354 897 349 924 q 360 840 360 871 q 356 780 360 810 q 347 729 351 750 q 332 640 339 685 q 321 551 325 596 q 317 437 315 496 q 344 328 319 378 q 357 308 350 317 q 372 292 364 299 q 440 280 403 269 q 501 319 478 290 q 523 357 515 336 q 536 399 531 378 q 543 480 544 439 q 538 561 542 521 q 517 690 531 626 q 500 818 503 753 q 502 858 499 838 q 515 894 506 878 q 564 933 532 922 q 603 943 583 940 q 644 944 624 946 q 692 938 668 944 q 736 915 717 931 q 770 866 760 896 q 788 807 781 836 q 807 683 803 743 q 808 669 807 679 q 809 649 808 660 q 810 628 810 638 q 811 615 811 618 q 820 528 815 571 q 822 442 825 486 q 813 358 821 400 q 793 275 806 315 q 749 180 778 225 q 681 100 721 135 q 591 47 640 67 q 489 19 542 26 z "},"v":{"ha":839,"x_min":32,"x_max":807,"o":"m 608 92 q 557 38 589 60 q 488 6 525 17 q 410 -2 450 -4 q 338 17 371 0 q 276 62 303 33 q 231 122 250 90 q 156 274 185 193 q 106 436 126 354 q 61 649 78 542 q 35 865 44 757 q 45 931 32 897 q 83 985 58 965 q 167 1022 119 1013 q 258 1021 214 1032 q 301 1004 281 1015 q 335 974 322 993 q 353 926 349 953 q 357 875 357 900 q 362 689 360 782 q 376 503 364 596 q 383 460 379 482 q 394 418 388 439 q 406 387 397 406 q 426 365 415 368 q 438 366 432 363 q 446 372 443 369 q 459 395 454 383 q 468 419 464 407 q 492 535 486 476 q 499 655 497 594 q 505 775 501 715 q 524 893 508 835 q 540 940 531 917 q 569 978 550 963 q 599 994 582 989 q 631 1000 615 999 q 704 993 665 1000 q 740 982 722 989 q 772 964 757 975 q 792 937 785 953 q 803 904 800 921 q 806 853 807 879 q 800 801 804 826 q 791 753 797 788 q 776 676 785 719 q 756 585 767 633 q 737 494 746 538 q 720 417 728 450 q 708 369 713 383 q 668 227 689 299 q 608 92 647 156 z "},"w":{"ha":1188,"x_min":49,"x_max":1146,"o":"m 390 6 q 338 -11 367 -10 q 283 -4 310 -12 q 240 17 260 3 q 204 47 221 31 q 155 117 175 78 q 122 196 135 156 q 94 310 104 253 q 78 426 85 368 q 58 619 67 524 q 49 813 50 715 q 49 856 49 835 q 53 897 50 876 q 75 949 57 928 q 119 981 93 969 q 177 994 146 992 q 239 988 208 996 q 290 961 268 981 q 328 905 317 939 q 343 836 339 871 q 347 736 349 786 q 342 636 344 686 q 340 536 339 586 q 351 438 340 486 q 364 402 356 422 q 388 379 372 382 q 408 388 399 378 q 424 408 418 399 q 447 469 439 436 q 460 535 454 503 q 472 619 465 576 q 493 701 479 661 q 517 744 501 725 q 553 774 533 764 q 594 784 572 785 q 635 768 615 783 q 663 731 654 753 q 675 685 671 708 q 685 585 683 636 q 697 486 686 535 q 707 444 701 465 q 724 404 713 424 q 741 383 731 393 q 764 376 751 372 q 777 388 771 379 q 789 406 783 396 q 798 428 794 417 q 804 447 801 439 q 810 485 808 467 q 814 522 813 503 q 828 678 818 601 q 846 833 838 754 q 855 892 849 863 q 876 949 861 922 q 898 976 885 964 q 928 994 911 988 q 974 1005 947 1003 q 1026 1003 1000 1007 q 1076 989 1053 999 q 1113 963 1099 979 q 1126 940 1121 951 q 1133 915 1131 928 q 1142 865 1140 890 q 1146 813 1144 839 q 1145 757 1146 785 q 1142 701 1144 729 q 1103 458 1126 579 q 1043 218 1079 336 q 1007 124 1028 171 q 950 44 986 78 q 879 3 918 15 q 801 -5 840 -8 q 724 17 761 -1 q 658 68 688 36 q 617 125 635 94 q 584 189 599 156 q 558 257 569 222 q 533 325 546 292 q 506 208 522 267 q 463 96 489 150 q 432 45 449 69 q 390 6 415 21 z "},"x":{"ha":871,"x_min":28,"x_max":846,"o":"m 251 -21 q 224 -28 240 -28 q 188 -24 207 -28 q 152 -15 169 -21 q 124 -3 135 -10 q 87 22 104 8 q 58 56 69 36 q 48 81 51 67 q 47 108 44 94 q 58 149 49 129 q 78 188 67 168 q 102 222 83 196 q 142 276 121 247 q 181 332 163 306 q 207 367 200 358 q 240 416 225 390 q 274 467 256 442 q 239 512 261 483 q 192 576 217 540 q 140 651 167 611 q 92 727 114 690 q 54 795 69 764 q 36 847 39 826 q 71 954 28 908 q 106 981 85 968 q 149 1003 126 994 q 194 1013 171 1011 q 235 1006 217 1014 q 251 992 244 1000 q 265 974 258 983 q 305 897 289 938 q 343 819 321 857 q 380 757 361 788 q 421 696 399 726 q 452 760 436 728 q 488 822 468 792 q 522 880 504 851 q 561 935 540 908 q 591 967 575 951 q 626 993 607 982 q 681 1003 650 1006 q 728 988 703 1000 q 776 959 753 976 q 816 921 799 942 q 840 879 833 900 q 843 849 846 864 q 833 818 840 833 q 801 763 821 789 q 763 714 782 738 q 710 651 736 682 q 658 588 683 619 q 606 522 631 556 q 556 453 581 488 q 574 431 560 447 q 603 395 588 414 q 634 360 619 376 q 654 338 649 343 q 713 276 683 306 q 771 213 743 246 q 797 167 786 193 q 801 118 807 142 q 783 79 797 99 q 749 44 768 60 q 708 17 729 28 q 667 3 686 6 q 646 2 656 1 q 626 6 636 3 q 590 22 607 11 q 557 46 572 33 q 470 148 504 89 q 404 267 436 207 q 378 206 390 236 q 353 146 367 176 q 335 108 347 133 q 309 57 324 83 q 279 8 294 31 q 251 -21 264 -14 z "},"y":{"ha":864,"x_min":17,"x_max":849,"o":"m 435 -17 q 403 -17 424 -17 q 363 -14 383 -17 q 323 -7 342 -11 q 296 6 304 -3 q 278 35 283 15 q 274 85 274 49 q 277 160 275 121 q 282 236 279 200 q 286 288 285 272 q 290 385 289 336 q 292 485 292 435 q 255 516 272 500 q 221 550 238 532 q 142 644 179 594 q 72 744 104 693 q 57 769 67 753 q 38 802 47 785 q 23 836 29 819 q 18 863 17 853 q 37 900 21 883 q 64 935 53 917 q 124 988 86 967 q 199 1007 161 1010 q 249 988 226 1004 q 308 910 286 956 q 354 824 329 865 q 370 798 360 813 q 392 771 381 783 q 417 750 404 758 q 443 743 431 742 q 461 751 451 744 q 481 768 471 758 q 498 788 490 778 q 510 806 506 799 q 540 853 522 822 q 578 916 557 885 q 621 971 599 947 q 664 999 643 994 q 705 993 683 1003 q 742 971 726 983 q 779 942 760 956 q 817 914 799 929 q 831 899 824 907 q 842 882 838 892 q 847 849 849 867 q 839 817 844 832 q 810 759 828 786 q 775 704 793 732 q 675 586 731 640 q 561 479 619 532 q 564 313 560 396 q 571 147 568 231 q 571 97 572 122 q 558 49 569 71 q 532 15 550 29 q 494 -6 514 1 q 465 -13 479 -11 q 435 -17 450 -15 z "},"z":{"ha":853,"x_min":36,"x_max":815,"o":"m 594 17 q 499 11 547 15 q 403 4 451 7 q 308 2 356 1 q 214 14 260 3 q 143 49 174 24 q 95 108 113 74 q 74 181 78 142 q 86 260 71 221 q 149 360 108 314 q 214 424 179 394 q 285 481 249 453 q 353 525 318 504 q 421 574 389 546 q 453 606 438 589 q 478 643 468 622 q 481 683 488 663 q 453 713 474 704 q 415 717 439 718 q 364 709 390 715 q 313 695 338 703 q 274 682 288 688 q 210 660 242 671 q 144 649 178 649 q 108 653 126 649 q 79 671 90 658 q 54 715 61 690 q 44 764 47 740 q 39 827 42 796 q 43 890 36 858 q 56 929 47 910 q 79 963 64 949 q 139 990 99 981 q 226 1001 179 999 q 317 1003 272 1004 q 388 1001 361 1003 q 405 1000 392 1001 q 433 998 418 999 q 460 996 447 997 q 478 994 474 994 q 576 998 526 993 q 674 996 625 1003 q 721 985 697 993 q 761 960 744 976 q 778 934 772 949 q 786 904 783 919 q 778 775 797 839 q 733 678 763 724 q 668 594 704 633 q 626 549 657 582 q 562 477 596 515 q 498 405 528 439 q 458 357 468 371 q 449 341 454 350 q 449 325 444 332 q 464 315 454 317 q 483 315 474 314 q 520 319 503 315 q 557 325 538 322 q 631 331 593 329 q 704 328 668 333 q 746 318 725 325 q 781 296 767 311 q 795 273 790 286 q 804 247 800 260 q 813 193 811 224 q 811 132 815 163 q 796 76 807 101 q 764 38 785 51 q 704 19 739 22 q 649 17 676 17 q 594 17 622 18 z "},"{":{"ha":665,"x_min":39,"x_max":615,"o":"m 479 -36 q 397 -46 438 -42 q 314 -46 356 -50 q 253 -33 283 -43 q 201 -3 224 -24 q 170 39 182 14 q 156 89 158 64 q 153 173 151 131 q 151 257 156 215 q 144 290 149 274 q 131 322 140 307 q 97 358 117 343 q 61 392 78 372 q 54 450 39 418 q 76 483 63 468 q 103 512 89 497 q 131 542 117 526 q 154 574 144 557 q 167 623 167 596 q 163 675 168 650 q 143 749 154 713 q 135 825 132 786 q 156 906 136 868 q 209 973 176 944 q 283 1019 242 1001 q 368 1039 325 1036 q 386 1041 372 1039 q 403 1043 400 1043 q 457 1048 431 1046 q 511 1047 483 1050 q 532 1042 522 1046 q 549 1032 542 1039 q 576 989 567 1015 q 588 933 586 963 q 585 874 590 904 q 571 822 581 844 q 507 767 553 779 q 447 764 478 760 q 385 764 415 768 q 363 759 374 763 q 346 749 353 756 q 335 731 339 742 q 329 710 331 721 q 328 687 328 704 q 330 650 329 669 q 332 613 331 631 q 333 589 333 594 q 317 529 331 558 q 283 478 304 500 q 273 468 281 475 q 256 453 265 461 q 238 438 246 444 q 228 428 231 431 q 286 393 257 411 q 335 347 315 375 q 353 305 349 328 q 358 258 357 282 q 360 238 360 251 q 365 221 361 225 q 380 215 369 215 q 397 215 390 215 q 442 222 421 217 q 485 233 463 228 q 509 239 496 236 q 533 239 522 242 q 592 199 571 231 q 608 156 601 181 q 615 103 614 131 q 610 52 615 76 q 592 11 604 28 q 541 -22 572 -12 q 479 -36 510 -32 z "},"}":{"ha":664,"x_min":50,"x_max":618,"o":"m 358 -46 q 302 -47 339 -49 q 226 -41 265 -46 q 151 -28 186 -36 q 99 -10 115 -21 q 60 35 71 7 q 51 78 53 53 q 53 128 50 103 q 65 177 57 154 q 86 214 74 200 q 123 235 100 229 q 167 238 146 242 q 225 222 196 231 q 285 215 254 213 q 300 221 294 215 q 304 231 303 224 q 306 248 306 239 q 306 265 306 257 q 307 278 307 274 q 313 308 310 293 q 322 336 315 322 q 372 389 340 368 q 436 428 404 410 q 417 447 426 439 q 396 464 407 456 q 357 509 374 483 q 335 564 340 535 q 332 621 329 592 q 336 678 335 650 q 337 706 338 692 q 331 731 336 719 q 294 761 321 756 q 235 765 265 768 q 174 764 204 761 q 135 776 154 767 q 106 801 117 786 q 76 879 82 835 q 81 964 71 924 q 92 1001 85 983 q 115 1032 100 1019 q 146 1045 125 1042 q 190 1049 167 1049 q 235 1047 213 1049 q 271 1043 257 1044 q 283 1040 274 1042 q 296 1039 293 1039 q 374 1021 336 1036 q 444 981 413 1006 q 495 928 472 958 q 525 861 518 897 q 528 785 533 821 q 513 721 522 753 q 499 657 504 689 q 498 614 496 636 q 511 574 500 592 q 535 542 521 557 q 563 512 549 526 q 590 483 576 497 q 611 450 603 468 q 617 427 617 439 q 613 404 618 415 q 594 381 606 390 q 571 361 582 372 q 547 339 558 350 q 528 313 535 328 q 518 285 521 299 q 513 256 515 271 q 513 159 510 207 q 504 64 515 111 q 449 -15 492 15 q 406 -35 429 -28 q 358 -46 382 -43 z "},"~":{"ha":814,"x_min":39,"x_max":778,"o":"m 603 208 q 524 221 560 204 q 469 254 494 235 q 418 293 443 274 q 388 315 403 304 q 354 329 372 325 q 317 326 332 335 q 291 310 301 321 q 269 288 281 299 q 235 249 253 268 q 193 222 217 231 q 147 216 171 214 q 102 228 124 218 q 65 256 81 239 q 43 296 49 274 q 41 328 39 311 q 49 361 43 346 q 90 441 63 404 q 150 507 117 478 q 183 529 165 519 q 219 543 200 539 q 267 541 243 547 q 313 525 290 535 q 363 497 333 515 q 423 464 392 479 q 483 442 454 449 q 531 447 511 435 q 549 467 542 454 q 565 490 557 479 q 588 519 576 506 q 615 542 600 533 q 643 549 628 549 q 672 547 658 550 q 740 517 711 538 q 772 461 768 497 q 764 376 778 419 q 726 299 750 333 q 672 240 704 267 q 603 208 640 214 z "}," ":{"ha":347,"x_min":0,"x_max":0,"o":""},"¢":{"ha":819,"x_min":50,"x_max":765,"o":"m 496 21 q 478 0 490 8 q 452 -12 467 -8 q 422 -17 438 -17 q 393 -14 407 -18 q 346 18 363 -4 q 335 51 336 33 q 336 88 333 69 q 263 112 299 96 q 197 151 228 128 q 139 209 165 176 q 96 279 113 242 q 56 434 63 351 q 67 596 50 517 q 109 711 79 656 q 183 808 139 767 q 338 893 249 869 q 332 926 335 908 q 335 960 329 944 q 349 980 339 971 q 369 996 358 989 q 401 1006 383 1003 q 437 1007 419 1008 q 469 999 454 1006 q 494 978 485 992 q 508 942 506 963 q 510 903 511 922 q 572 890 542 899 q 629 864 601 881 q 633 863 632 863 q 638 861 635 863 q 663 844 647 857 q 693 817 678 832 q 721 785 708 801 q 739 760 733 769 q 754 704 754 733 q 738 661 751 681 q 708 626 725 642 q 663 595 689 610 q 608 574 636 581 q 551 569 579 567 q 503 586 524 571 q 468 619 483 600 q 433 653 453 639 q 396 669 417 667 q 356 663 375 671 q 326 639 339 654 q 304 607 313 624 q 297 594 301 597 q 297 586 299 592 q 293 578 294 581 q 282 524 285 551 q 281 468 279 496 q 288 417 283 443 q 307 371 293 392 q 332 340 317 354 q 367 324 347 326 q 414 328 390 319 q 457 349 438 336 q 509 392 485 368 q 561 433 533 415 q 597 449 578 443 q 635 453 615 454 q 681 440 658 450 q 722 415 704 431 q 751 378 740 399 q 764 333 763 357 q 759 295 765 314 q 743 260 753 276 q 640 144 707 192 q 497 83 572 97 q 502 52 501 68 q 496 21 503 36 z "},"£":{"ha":881,"x_min":51,"x_max":840,"o":"m 154 -26 q 106 -18 128 -29 q 72 17 85 -7 q 60 46 64 31 q 54 78 57 61 q 52 122 51 100 q 60 165 53 144 q 94 214 71 194 q 140 238 115 229 q 185 263 165 247 q 217 303 206 278 q 229 354 229 329 q 228 381 229 368 q 225 406 228 393 q 151 399 185 397 q 127 406 139 401 q 107 419 115 410 q 94 442 97 429 q 90 469 90 456 q 97 501 90 485 q 115 526 103 517 q 153 540 132 539 q 194 543 175 542 q 188 560 190 551 q 182 578 185 568 q 157 701 164 638 q 158 766 154 733 q 178 828 163 799 q 238 914 200 875 q 324 975 276 953 q 428 1005 372 999 q 536 1004 483 1011 q 588 995 563 1001 q 636 974 614 989 q 692 917 669 950 q 726 844 714 883 q 736 765 738 806 q 721 689 735 725 q 686 642 707 658 q 625 613 661 619 q 557 614 589 606 q 518 629 538 619 q 488 656 499 639 q 475 686 478 669 q 474 718 472 703 q 475 759 475 739 q 471 799 475 779 q 463 822 468 810 q 449 840 458 833 q 405 846 428 854 q 371 814 382 838 q 357 728 353 775 q 372 646 360 686 q 400 567 385 606 q 404 557 403 563 q 407 551 406 551 q 471 560 439 558 q 497 561 481 561 q 530 559 513 561 q 563 553 547 557 q 586 544 578 550 q 601 526 596 538 q 607 503 606 514 q 607 485 607 496 q 605 461 607 474 q 599 438 603 449 q 592 422 596 428 q 563 406 581 410 q 531 400 546 403 q 508 399 524 400 q 476 399 493 399 q 444 399 460 399 q 422 401 428 400 q 429 333 428 367 q 421 265 431 299 q 435 259 425 265 q 447 251 444 253 q 511 238 475 238 q 564 238 538 236 q 615 246 590 239 q 656 260 636 251 q 697 275 676 268 q 732 282 714 279 q 765 278 750 285 q 782 268 775 275 q 796 254 789 261 q 831 185 821 225 q 836 107 840 144 q 821 51 833 79 q 785 8 808 24 q 715 -19 753 -12 q 640 -21 676 -25 q 544 0 592 -15 q 449 24 497 15 q 363 29 407 31 q 279 15 319 28 q 217 -9 247 6 q 154 -26 188 -24 z "},"¤":{"ha":607,"x_min":49,"x_max":554,"o":"m 140 193 q 101 201 119 190 q 81 233 83 211 q 84 278 78 256 q 100 321 90 300 q 76 361 85 340 q 63 406 68 382 q 60 522 49 461 q 106 631 72 583 q 85 672 93 650 q 79 715 76 693 q 96 750 82 738 q 126 758 110 760 q 158 749 142 757 q 190 730 175 742 q 218 707 206 718 q 321 717 267 721 q 419 688 375 713 q 476 726 447 711 q 515 735 499 736 q 541 722 532 732 q 552 697 550 711 q 551 665 554 682 q 540 633 547 647 q 528 609 535 621 q 513 586 521 597 q 541 460 543 528 q 506 333 539 392 q 519 298 513 315 q 528 261 526 281 q 522 227 529 244 q 499 206 514 210 q 473 207 486 203 q 449 218 460 211 q 424 236 436 226 q 400 256 411 246 q 357 246 379 249 q 311 243 335 243 q 270 242 290 242 q 229 246 250 243 q 189 212 211 228 q 140 193 167 196 m 239 458 q 269 427 251 440 q 306 409 286 414 q 347 408 326 404 q 383 425 367 411 q 415 490 411 449 q 399 561 418 531 q 362 594 383 583 q 317 603 340 604 q 274 590 294 603 q 243 553 254 576 q 228 505 232 532 q 239 458 225 478 z "},"¥":{"ha":976,"x_min":53,"x_max":924,"o":"m 478 -17 q 408 -12 442 -17 q 384 -8 396 -10 q 361 1 372 -6 q 342 29 347 10 q 335 72 336 49 q 335 117 333 94 q 338 157 338 140 q 263 158 300 157 q 189 163 225 160 q 156 166 175 164 q 119 173 138 168 q 85 185 100 178 q 65 206 71 193 q 68 235 58 221 q 92 258 78 250 q 130 276 110 269 q 171 285 150 282 q 259 293 215 292 q 347 296 303 294 q 349 326 349 311 q 350 356 349 340 q 272 358 311 357 q 194 361 233 358 q 142 367 169 363 q 92 381 114 372 q 62 403 71 389 q 67 438 53 417 q 95 462 78 453 q 131 475 113 471 q 233 491 181 489 q 339 494 286 493 q 288 544 311 518 q 240 599 264 571 q 184 669 211 633 q 133 744 157 706 q 118 769 128 753 q 99 802 108 785 q 84 836 90 819 q 79 863 78 853 q 97 900 82 883 q 125 935 113 917 q 185 988 147 967 q 260 1007 222 1010 q 308 988 289 1004 q 368 910 346 956 q 414 824 390 865 q 431 798 421 813 q 453 771 440 783 q 478 750 465 758 q 504 743 492 742 q 522 751 513 744 q 541 768 532 758 q 558 788 550 778 q 571 806 567 799 q 601 853 583 822 q 639 916 618 885 q 682 971 660 947 q 725 999 704 994 q 766 993 744 1003 q 803 971 788 983 q 840 942 821 956 q 878 914 860 929 q 892 899 885 907 q 903 882 899 892 q 908 849 910 867 q 900 817 906 832 q 872 759 889 786 q 836 704 854 732 q 742 593 794 644 q 636 492 690 542 q 697 488 658 490 q 777 481 736 486 q 853 465 818 475 q 904 439 889 456 q 913 421 914 431 q 906 402 913 411 q 888 386 899 393 q 864 375 876 379 q 814 363 839 367 q 763 357 789 360 q 693 354 728 354 q 624 354 658 354 q 625 324 625 339 q 626 293 625 308 q 729 288 678 290 q 832 274 781 285 q 852 267 840 271 q 876 258 864 264 q 899 246 889 253 q 914 232 910 239 q 906 197 924 213 q 867 175 888 182 q 818 164 843 167 q 767 158 793 161 q 699 156 733 156 q 632 156 665 156 q 632 100 633 128 q 619 49 631 72 q 593 15 611 29 q 556 -6 575 1 q 517 -15 536 -12 q 478 -17 497 -17 z "},"­":{"ha":0,"x_min":0,"x_max":0,"o":""},"±":{"ha":751,"x_min":50,"x_max":704,"o":"m 438 349 q 374 324 413 321 q 310 356 336 328 q 287 392 294 371 q 275 436 279 414 q 269 489 271 463 q 267 542 268 515 q 188 545 228 543 q 111 561 147 547 q 72 591 86 571 q 56 635 58 611 q 61 682 53 658 q 89 725 69 706 q 125 749 104 740 q 167 763 146 758 q 215 770 190 768 q 265 774 240 772 q 266 819 265 797 q 269 864 267 842 q 277 901 272 883 q 293 933 282 918 q 342 967 311 960 q 405 961 372 974 q 457 924 438 949 q 473 894 467 910 q 483 861 479 878 q 491 815 489 838 q 496 768 493 792 q 571 758 533 765 q 642 733 608 750 q 660 719 651 728 q 676 704 668 711 q 701 642 704 679 q 669 579 697 604 q 635 558 654 565 q 597 546 617 550 q 548 540 574 542 q 497 539 522 539 q 488 460 494 499 q 465 385 482 421 q 452 367 460 375 q 438 349 444 358 m 546 4 q 499 3 531 3 q 428 3 468 3 q 345 4 389 3 q 263 7 301 6 q 192 10 224 8 q 146 15 161 13 q 99 30 122 19 q 64 60 76 40 q 52 94 54 75 q 54 133 50 114 q 69 168 58 151 q 93 197 79 185 q 125 215 107 208 q 163 226 143 222 q 213 235 188 233 q 264 238 239 236 q 377 239 321 240 q 490 232 433 238 q 565 222 528 229 q 638 197 603 214 q 656 184 647 192 q 672 168 664 176 q 692 137 686 154 q 695 101 697 119 q 683 65 693 82 q 658 36 674 49 q 605 13 635 18 q 546 4 575 7 z "},"×":{"ha":622,"x_min":49,"x_max":576,"o":"m 151 182 q 92 197 122 179 q 54 242 63 214 q 51 256 51 249 q 51 269 51 263 q 58 313 51 294 q 94 383 71 350 q 146 444 118 415 q 113 478 129 461 q 82 515 97 496 q 63 546 71 531 q 51 579 54 561 q 64 632 49 608 q 112 674 81 660 q 175 683 143 689 q 207 674 192 681 q 238 660 222 668 q 275 634 257 647 q 311 606 293 621 q 359 643 335 625 q 411 672 383 661 q 485 682 447 690 q 550 644 524 674 q 569 575 576 614 q 559 544 567 558 q 540 515 551 529 q 510 478 526 496 q 478 444 494 461 q 528 383 504 415 q 565 313 551 350 q 569 290 568 301 q 571 268 569 279 q 565 232 572 249 q 543 203 557 215 q 512 185 529 192 q 475 181 494 179 q 433 192 453 183 q 394 214 413 201 q 351 247 371 229 q 311 283 331 264 q 267 244 289 264 q 219 207 244 224 q 188 190 204 197 q 151 182 171 183 z "},"÷":{"ha":706,"x_min":28,"x_max":679,"o":"m 418 583 q 380 561 401 569 q 336 556 358 553 q 295 568 314 557 q 264 595 276 579 q 248 631 251 611 q 253 671 244 650 q 260 690 257 681 q 269 708 264 700 q 295 735 281 724 q 328 749 310 746 q 360 749 343 751 q 394 740 378 747 q 424 723 411 733 q 446 699 438 713 q 453 669 453 686 q 450 637 454 653 q 438 607 446 621 q 418 583 429 593 m 511 332 q 455 332 497 332 q 365 333 413 332 q 276 334 318 333 q 221 335 235 335 q 163 337 192 335 q 106 344 133 339 q 67 357 86 347 q 38 382 49 367 q 28 415 28 399 q 38 447 29 432 q 62 474 47 463 q 94 493 76 486 q 144 506 118 503 q 196 511 169 510 q 326 516 261 517 q 458 511 392 515 q 542 503 500 508 q 622 481 585 499 q 651 461 633 475 q 672 436 668 447 q 675 404 679 419 q 660 377 671 389 q 634 356 650 365 q 600 343 618 347 q 556 335 578 336 q 511 332 533 333 m 413 119 q 371 97 393 103 q 326 93 349 90 q 285 108 304 96 q 253 143 265 121 q 249 207 235 174 q 256 226 253 217 q 265 244 258 236 q 290 271 275 260 q 324 285 306 282 q 356 285 339 288 q 390 276 374 283 q 420 259 407 269 q 442 235 433 249 q 445 174 456 208 q 413 119 435 139 z "},"‘":{"ha":265,"x_min":43,"x_max":221,"o":"m 190 693 q 161 687 178 689 q 126 685 144 685 q 93 690 108 686 q 68 703 78 694 q 49 738 54 715 q 43 788 43 761 q 47 840 43 814 q 54 883 50 865 q 65 924 58 904 q 83 961 72 944 q 136 1003 101 989 q 181 1006 157 1010 q 214 982 206 1003 q 217 951 217 974 q 217 905 218 929 q 216 858 217 881 q 215 826 215 836 q 217 805 215 819 q 219 774 218 790 q 220 742 221 757 q 218 721 219 726 q 190 693 213 703 z "},"’":{"ha":265,"x_min":46,"x_max":224,"o":"m 129 689 q 85 685 108 682 q 53 710 61 689 q 49 740 49 718 q 49 787 49 763 q 51 833 50 811 q 50 865 51 856 q 49 887 50 872 q 47 918 47 901 q 46 949 46 935 q 49 971 46 964 q 59 988 51 981 q 75 999 67 994 q 104 1006 88 1003 q 139 1007 121 1008 q 172 1001 157 1006 q 197 989 188 997 q 217 953 211 976 q 223 904 222 931 q 220 852 224 878 q 213 808 217 826 q 201 768 207 789 q 182 731 194 747 q 129 689 164 701 z "},"“":{"ha":511,"x_min":43,"x_max":467,"o":"m 190 701 q 161 694 178 697 q 126 692 144 692 q 93 698 108 693 q 68 711 78 703 q 49 747 54 724 q 43 795 43 769 q 47 847 43 821 q 54 890 50 872 q 65 931 58 911 q 83 969 72 951 q 136 1010 104 999 q 181 1013 157 1017 q 214 989 206 1010 q 217 959 217 981 q 217 913 218 938 q 216 867 217 889 q 215 835 215 844 q 217 813 215 828 q 219 781 218 797 q 220 749 221 764 q 218 728 219 735 q 190 701 211 708 m 436 693 q 407 687 424 689 q 372 685 390 685 q 339 690 354 686 q 314 703 324 694 q 294 738 300 715 q 288 788 289 761 q 291 840 288 814 q 299 883 294 865 q 310 924 304 904 q 329 961 317 944 q 382 1003 347 990 q 426 1006 403 1010 q 458 982 450 1003 q 463 951 463 974 q 462 905 463 929 q 460 858 461 881 q 461 826 460 836 q 463 805 461 819 q 465 774 464 790 q 466 742 467 757 q 464 721 465 726 q 453 704 461 711 q 436 693 444 697 z "},"”":{"ha":511,"x_min":46,"x_max":469,"o":"m 129 697 q 85 694 108 690 q 53 718 61 697 q 49 748 49 726 q 49 794 49 769 q 51 840 50 818 q 50 872 51 863 q 49 894 50 879 q 47 925 47 908 q 46 957 46 942 q 49 979 46 972 q 59 996 51 989 q 75 1006 67 1003 q 104 1013 88 1010 q 139 1015 121 1015 q 172 1009 157 1014 q 197 996 188 1004 q 217 960 211 983 q 223 912 222 938 q 220 860 224 886 q 213 817 217 835 q 201 776 207 796 q 182 738 194 756 q 159 713 172 724 q 129 697 146 703 m 375 689 q 331 685 354 682 q 297 710 307 689 q 294 740 294 718 q 294 787 293 763 q 295 833 294 811 q 296 865 296 856 q 294 887 296 872 q 292 918 293 901 q 290 949 290 935 q 293 971 290 964 q 321 999 299 989 q 350 1006 333 1003 q 385 1007 367 1008 q 418 1001 403 1006 q 443 989 433 997 q 463 953 457 976 q 469 904 468 931 q 466 852 469 878 q 458 808 463 826 q 446 768 453 789 q 428 731 439 747 q 375 689 410 703 z "},"€":{"ha":857,"x_min":35,"x_max":804,"o":"m 578 15 q 438 20 507 4 q 311 76 369 36 q 258 122 283 96 q 215 178 233 147 q 170 292 185 231 q 149 414 156 353 q 108 419 128 417 q 68 428 88 421 q 50 439 58 432 q 40 456 42 446 q 44 472 39 464 q 57 485 49 479 q 75 495 65 492 q 93 501 85 499 q 119 508 106 506 q 144 511 132 510 q 145 538 144 525 q 147 565 146 551 q 122 568 138 567 q 90 573 106 569 q 61 582 75 576 q 42 596 47 588 q 38 615 35 606 q 49 631 40 624 q 68 645 57 639 q 90 654 79 651 q 126 660 108 658 q 163 665 143 663 q 217 817 179 747 q 248 871 231 844 q 289 919 265 897 q 389 983 332 963 q 428 995 408 990 q 468 1006 449 1000 q 534 1010 500 1013 q 600 1000 568 1008 q 654 983 628 993 q 704 957 681 972 q 729 937 718 949 q 747 910 740 925 q 752 867 756 890 q 739 822 749 844 q 713 779 729 799 q 681 747 697 760 q 617 726 653 726 q 563 737 589 728 q 514 757 538 746 q 478 770 496 764 q 440 774 460 776 q 401 753 418 772 q 376 714 385 736 q 363 668 368 692 q 469 667 415 668 q 575 658 522 665 q 597 654 583 657 q 626 647 611 651 q 653 636 640 642 q 669 622 665 631 q 664 592 681 606 q 628 574 647 579 q 490 560 560 558 q 349 563 419 561 q 349 540 349 551 q 350 517 349 528 q 425 516 388 517 q 499 514 463 515 q 562 508 531 511 q 624 497 593 506 q 659 483 640 492 q 676 457 678 475 q 667 440 675 447 q 647 428 658 433 q 624 421 636 424 q 601 417 611 418 q 488 409 544 408 q 374 410 431 410 q 392 369 382 389 q 419 332 403 349 q 441 316 429 322 q 465 308 453 310 q 490 308 478 306 q 515 313 503 310 q 594 340 556 322 q 674 367 633 357 q 699 370 686 369 q 725 367 713 371 q 758 347 743 360 q 783 318 772 333 q 799 274 794 297 q 803 226 804 250 q 776 131 800 174 q 707 58 751 88 q 646 30 679 39 q 578 15 613 21 z "},"™":{"ha":1064,"x_min":38,"x_max":1011,"o":"m 265 554 q 238 551 254 551 q 206 553 222 551 q 176 559 190 554 q 154 572 161 564 q 147 590 149 578 q 144 617 144 603 q 144 644 143 631 q 144 664 144 657 q 148 760 146 713 q 157 857 150 808 q 124 851 142 854 q 91 850 107 849 q 63 858 75 851 q 44 879 50 864 q 38 917 38 897 q 46 956 39 936 q 64 980 51 969 q 90 996 76 990 q 149 1008 118 1007 q 210 1011 179 1010 q 303 1013 257 1011 q 396 1003 350 1014 q 410 998 403 1000 q 424 993 417 996 q 446 965 442 983 q 447 916 450 947 q 433 871 444 885 q 408 856 424 860 q 376 851 392 851 q 347 853 361 853 q 318 854 333 853 q 317 838 317 849 q 314 825 318 828 l 315 821 q 311 724 313 772 q 311 626 310 675 q 310 597 311 617 q 303 569 310 576 q 285 560 296 563 q 265 554 275 557 m 994 563 q 968 551 983 553 q 938 549 953 549 q 905 553 922 550 q 876 567 888 556 q 864 591 867 576 q 861 621 861 606 q 866 708 863 665 q 869 794 869 750 q 844 744 858 769 q 810 699 829 719 q 749 671 786 675 q 683 686 711 667 q 663 704 672 693 q 647 728 654 715 q 630 762 638 744 q 615 796 622 779 q 620 702 615 749 q 622 610 625 656 q 619 589 621 599 q 610 571 617 579 q 595 560 604 564 q 578 554 586 557 q 555 551 568 551 q 528 553 542 551 q 503 558 515 554 q 486 569 492 563 q 475 596 476 581 q 474 626 474 611 q 476 662 474 636 q 480 716 478 688 q 483 770 482 744 q 483 806 485 796 q 477 862 481 833 q 475 918 474 890 q 481 957 476 938 q 500 989 486 976 q 535 1005 515 1003 q 575 1008 556 1007 q 609 1008 592 1008 q 642 1001 626 1007 q 672 979 658 994 q 694 941 686 961 q 710 900 703 921 q 728 842 721 871 q 743 782 736 813 q 755 831 747 800 q 774 894 763 861 q 798 953 785 926 q 826 992 811 981 q 844 1000 835 997 q 865 1006 854 1003 q 900 1008 881 1008 q 938 1005 919 1008 q 973 994 957 1001 q 996 974 989 986 q 1008 937 1006 957 q 1010 897 1011 917 q 1001 808 1008 854 q 1001 788 1001 803 q 1002 756 1001 772 q 1003 724 1003 739 q 1004 703 1004 708 q 1008 669 1006 690 q 1010 628 1010 649 q 1007 589 1010 607 q 994 563 1004 571 z "},"−":{"ha":715,"x_min":35,"x_max":682,"o":"m 531 324 q 484 322 515 322 q 413 323 453 322 q 330 324 374 324 q 247 326 286 325 q 177 330 208 328 q 131 335 146 332 q 84 349 107 339 q 49 379 61 360 q 37 414 39 394 q 39 452 35 433 q 53 488 43 471 q 78 517 64 504 q 110 536 92 529 q 147 547 128 543 q 198 554 172 553 q 249 557 224 556 q 362 558 306 560 q 475 553 418 557 q 550 542 513 550 q 622 517 588 533 q 640 503 632 511 q 657 488 649 496 q 676 456 671 474 q 680 421 682 439 q 668 386 678 403 q 643 357 658 369 q 590 333 619 339 q 531 324 560 326 z "},"`":{"ha":247,"x_min":35,"x_max":211,"o":"m 210 799 q 191 774 207 781 q 158 772 175 768 q 111 803 131 781 q 78 851 92 826 q 58 891 68 868 q 41 938 47 914 q 35 983 35 961 q 50 1019 36 1004 q 92 1040 65 1036 q 138 1028 118 1043 q 163 1001 153 1017 q 179 967 172 985 q 200 897 193 933 q 210 825 207 861 q 210 799 211 811 z "},"|":{"ha":403,"x_min":79,"x_max":329,"o":"m 214 -83 q 182 -85 199 -87 q 151 -75 165 -82 q 101 -10 111 -51 q 94 39 96 14 q 89 89 92 64 q 81 235 82 163 q 79 381 79 307 q 83 733 79 556 q 95 861 86 797 q 129 985 104 925 q 153 1028 140 1007 q 186 1061 167 1049 q 264 1061 224 1086 q 289 1036 279 1051 q 306 1004 299 1021 q 320 953 315 979 q 328 899 325 926 q 328 856 329 888 q 326 790 328 825 q 323 722 325 754 q 321 679 321 690 q 319 624 321 664 q 315 533 317 585 q 310 424 313 482 q 306 315 308 367 q 301 224 303 264 q 299 169 299 185 q 294 101 297 135 q 285 36 292 68 q 274 -6 281 14 q 257 -46 268 -26 q 239 -67 250 -57 q 214 -83 228 -78 z "}}}
